<svg viewBox="0 0 330 200" xmlns="http://www.w3.org/2000/svg"><g><g><g><g><g><line x1="51.41600036621094" y1="177.95999908447266" x2="46.41600036621094" y2="177.95999908447266" style="visibility: inherit;" fill="rgb(0, 0, 0)" stroke="rgb(204, 204, 204)" stroke-width="1px"></line><line x1="51.41600036621094" y1="160.16399917602538" x2="46.41600036621094" y2="160.16399917602538" style="visibility: inherit;" fill="rgb(0, 0, 0)" stroke="rgb(204, 204, 204)" stroke-width="1px"></line><line x1="51.41600036621094" y1="142.36799926757814" x2="46.41600036621094" y2="142.36799926757814" style="visibility: inherit;" fill="rgb(0, 0, 0)" stroke="rgb(204, 204, 204)" stroke-width="1px"></line><line x1="51.41600036621094" y1="124.57199935913086" x2="46.41600036621094" y2="124.57199935913086" style="visibility: inherit;" fill="rgb(0, 0, 0)" stroke="rgb(204, 204, 204)" stroke-width="1px"></line><line x1="51.41600036621094" y1="106.77599945068359" x2="46.41600036621094" y2="106.77599945068359" style="visibility: inherit;" fill="rgb(0, 0, 0)" stroke="rgb(204, 204, 204)" stroke-width="1px"></line><line x1="51.41600036621094" y1="88.97999954223633" x2="46.41600036621094" y2="88.97999954223633" style="visibility: inherit;" fill="rgb(0, 0, 0)" stroke="rgb(204, 204, 204)" stroke-width="1px"></line><line x1="51.41600036621094" y1="71.18399963378907" x2="46.41600036621094" y2="71.18399963378907" style="visibility: inherit;" fill="rgb(0, 0, 0)" stroke="rgb(204, 204, 204)" stroke-width="1px"></line><line x1="51.41600036621094" y1="53.38799972534181" x2="46.41600036621094" y2="53.38799972534181" style="visibility: inherit;" fill="rgb(0, 0, 0)" stroke="rgb(204, 204, 204)" stroke-width="1px"></line><line x1="51.41600036621094" y1="35.59199981689454" x2="46.41600036621094" y2="35.59199981689454" style="visibility: inherit;" fill="rgb(0, 0, 0)" stroke="rgb(204, 204, 204)" stroke-width="1px"></line><line x1="51.41600036621094" y1="17.79599990844726" x2="46.41600036621094" y2="17.79599990844726" style="visibility: inherit;" fill="rgb(0, 0, 0)" stroke="rgb(204, 204, 204)" stroke-width="1px"></line><line x1="51.41600036621094" y1="0" x2="46.41600036621094" y2="0" style="visibility: inherit;" fill="rgb(0, 0, 0)" stroke="rgb(204, 204, 204)" stroke-width="1px"></line></g><g transform="translate(41.41600036621094, 0)"><text style="text-anchor: end; visibility: hidden; font-family: Roboto, sans-serif; font-size: 12px; font-weight: 200;" x="0" y="177.95999908447266" dx="0em" dy="0.3em" fill="rgb(50, 49, 63)" stroke="none" stroke-width="1px">-0.1</text><text style="text-anchor: end; visibility: inherit; font-family: Roboto, sans-serif; font-size: 12px; font-weight: 200;" x="0" y="160.16399917602538" dx="0em" dy="0.3em" fill="rgb(50, 49, 63)" stroke="none" stroke-width="1px">0</text><text style="text-anchor: end; visibility: hidden; font-family: Roboto, sans-serif; font-size: 12px; font-weight: 200;" x="0" y="142.36799926757814" dx="0em" dy="0.3em" fill="rgb(50, 49, 63)" stroke="none" stroke-width="1px">0.1</text><text style="text-anchor: end; visibility: inherit; font-family: Roboto, sans-serif; font-size: 12px; font-weight: 200;" x="0" y="124.57199935913086" dx="0em" dy="0.3em" fill="rgb(50, 49, 63)" stroke="none" stroke-width="1px">0.2</text><text style="text-anchor: end; visibility: hidden; font-family: Roboto, sans-serif; font-size: 12px; font-weight: 200;" x="0" y="106.77599945068359" dx="0em" dy="0.3em" fill="rgb(50, 49, 63)" stroke="none" stroke-width="1px">0.3</text><text style="text-anchor: end; visibility: inherit; font-family: Roboto, sans-serif; font-size: 12px; font-weight: 200;" x="0" y="88.97999954223633" dx="0em" dy="0.3em" fill="rgb(50, 49, 63)" stroke="none" stroke-width="1px">0.4</text><text style="text-anchor: end; visibility: hidden; font-family: Roboto, sans-serif; font-size: 12px; font-weight: 200;" x="0" y="71.18399963378907" dx="0em" dy="0.3em" fill="rgb(50, 49, 63)" stroke="none" stroke-width="1px">0.5</text><text style="text-anchor: end; visibility: inherit; font-family: Roboto, sans-serif; font-size: 12px; font-weight: 200;" x="0" y="53.38799972534181" dx="0em" dy="0.3em" fill="rgb(50, 49, 63)" stroke="none" stroke-width="1px">0.6</text><text style="text-anchor: end; visibility: hidden; font-family: Roboto, sans-serif; font-size: 12px; font-weight: 200;" x="0" y="35.59199981689454" dx="0em" dy="0.3em" fill="rgb(50, 49, 63)" stroke="none" stroke-width="1px">0.7</text><text style="text-anchor: end; visibility: inherit; font-family: Roboto, sans-serif; font-size: 12px; font-weight: 200;" x="0" y="17.79599990844726" dx="0em" dy="0.3em" fill="rgb(50, 49, 63)" stroke="none" stroke-width="1px">0.8</text><text style="text-anchor: end; visibility: hidden; font-family: Roboto, sans-serif; font-size: 12px; font-weight: 200;" x="0" y="0" dx="0em" dy="0.3em" fill="rgb(50, 49, 63)" stroke="none" stroke-width="1px">0.9</text></g><line x1="51.41600036621094" y1="0" x2="51.41600036621094" y2="177.95999908447266" fill="rgb(0, 0, 0)" stroke="rgb(204, 204, 204)" stroke-width="1px"></line></g></g><g transform="translate(51, 0)" clip-path="url(#clip_0)"><clipPath id="clip_0"><rect width="278" height="177"></rect></clipPath><g><g><g><line x1="0" y1="0" x2="0" y2="177.95999908447266" fill="rgb(0, 0, 0)" stroke="rgb(60, 60, 60)" stroke-width="1px" opacity="0.25"></line><line x1="23.215333302815754" y1="0" x2="23.215333302815754" y2="177.95999908447266" fill="rgb(0, 0, 0)" stroke="rgb(60, 60, 60)" stroke-width="1px" opacity="0.25"></line><line x1="46.43066660563151" y1="0" x2="46.43066660563151" y2="177.95999908447266" fill="rgb(0, 0, 0)" stroke="rgb(60, 60, 60)" stroke-width="1px" opacity="0.25"></line><line x1="69.64599990844727" y1="0" x2="69.64599990844727" y2="177.95999908447266" fill="rgb(0, 0, 0)" stroke="rgb(60, 60, 60)" stroke-width="1px" opacity="0.25"></line><line x1="92.86133321126302" y1="0" x2="92.86133321126302" y2="177.95999908447266" fill="rgb(0, 0, 0)" stroke="rgb(60, 60, 60)" stroke-width="1px" opacity="0.25"></line><line x1="116.07666651407878" y1="0" x2="116.07666651407878" y2="177.95999908447266" fill="rgb(0, 0, 0)" stroke="rgb(60, 60, 60)" stroke-width="1px" opacity="0.25"></line><line x1="139.29199981689453" y1="0" x2="139.29199981689453" y2="177.95999908447266" fill="rgb(0, 0, 0)" stroke="rgb(60, 60, 60)" stroke-width="1px" opacity="0.25"></line><line x1="162.5073331197103" y1="0" x2="162.5073331197103" y2="177.95999908447266" fill="rgb(0, 0, 0)" stroke="rgb(60, 60, 60)" stroke-width="1px" opacity="0.25"></line><line x1="185.72266642252603" y1="0" x2="185.72266642252603" y2="177.95999908447266" fill="rgb(0, 0, 0)" stroke="rgb(60, 60, 60)" stroke-width="1px" opacity="0.25"></line><line x1="208.9379997253418" y1="0" x2="208.9379997253418" y2="177.95999908447266" fill="rgb(0, 0, 0)" stroke="rgb(60, 60, 60)" stroke-width="1px" opacity="0.25"></line><line x1="232.15333302815756" y1="0" x2="232.15333302815756" y2="177.95999908447266" fill="rgb(0, 0, 0)" stroke="rgb(60, 60, 60)" stroke-width="1px" opacity="0.25"></line><line x1="255.3686663309733" y1="0" x2="255.3686663309733" y2="177.95999908447266" fill="rgb(0, 0, 0)" stroke="rgb(60, 60, 60)" stroke-width="1px" opacity="0.25"></line><line x1="278.58399963378906" y1="0" x2="278.58399963378906" y2="177.95999908447266" fill="rgb(0, 0, 0)" stroke="rgb(60, 60, 60)" stroke-width="1px" opacity="0.25"></line></g><g><line x1="0" y1="177.95999908447266" x2="278.58399963378906" y2="177.95999908447266" fill="rgb(0, 0, 0)" stroke="rgb(60, 60, 60)" stroke-width="1px" opacity="0.25"></line><line x1="0" y1="160.16399917602538" x2="278.58399963378906" y2="160.16399917602538" fill="rgb(0, 0, 0)" stroke="rgb(60, 60, 60)" stroke-width="1px" opacity="0.25"></line><line x1="0" y1="142.36799926757814" x2="278.58399963378906" y2="142.36799926757814" fill="rgb(0, 0, 0)" stroke="rgb(60, 60, 60)" stroke-width="1px" opacity="0.25"></line><line x1="0" y1="124.57199935913086" x2="278.58399963378906" y2="124.57199935913086" fill="rgb(0, 0, 0)" stroke="rgb(60, 60, 60)" stroke-width="1px" opacity="0.25"></line><line x1="0" y1="106.77599945068359" x2="278.58399963378906" y2="106.77599945068359" fill="rgb(0, 0, 0)" stroke="rgb(60, 60, 60)" stroke-width="1px" opacity="0.25"></line><line x1="0" y1="88.97999954223633" x2="278.58399963378906" y2="88.97999954223633" fill="rgb(0, 0, 0)" stroke="rgb(60, 60, 60)" stroke-width="1px" opacity="0.25"></line><line x1="0" y1="71.18399963378907" x2="278.58399963378906" y2="71.18399963378907" fill="rgb(0, 0, 0)" stroke="rgb(60, 60, 60)" stroke-width="1px" opacity="0.25"></line><line x1="0" y1="53.38799972534181" x2="278.58399963378906" y2="53.38799972534181" fill="rgb(0, 0, 0)" stroke="rgb(60, 60, 60)" stroke-width="1px" opacity="0.25"></line><line x1="0" y1="35.59199981689454" x2="278.58399963378906" y2="35.59199981689454" fill="rgb(0, 0, 0)" stroke="rgb(60, 60, 60)" stroke-width="1px" opacity="0.25"></line><line x1="0" y1="17.79599990844726" x2="278.58399963378906" y2="17.79599990844726" fill="rgb(0, 0, 0)" stroke="rgb(60, 60, 60)" stroke-width="1px" opacity="0.25"></line><line x1="0" y1="0" x2="278.58399963378906" y2="0" fill="rgb(0, 0, 0)" stroke="rgb(60, 60, 60)" stroke-width="1px" opacity="0.25"></line></g></g></g><g><g><line x1="0" y1="160.16399917602538" x2="278.58399963378906" y2="160.16399917602538" fill="rgb(0, 0, 0)" stroke="rgb(153, 153, 153)" stroke-width="1.5px"></line></g></g><g><g><line x1="23.215333302815754" y1="0" x2="23.215333302815754" y2="177.95999908447266" fill="rgb(0, 0, 0)" stroke="rgb(153, 153, 153)" stroke-width="1.5px"></line></g></g><g><g><g><g><g><path style="fill: none;" stroke="rgb(0, 119, 187)" stroke-width="2px" d="M23.215333302815754,146.38757643366242L27.858399963378908,145.13418322181678L32.50146662394206,132.38338491364593L37.14453328450521,118.82415165766082L41.78759994506836,113.57207480046904L46.43066660563151,111.04254448680848L51.07373326619466,101.45743782914339L55.716799926757815,87.4030271475647L60.359866587320965,83.73840140289853L65.00293324788412,70.61557756330107L69.64599990844727,58.067309237341135L74.28906656901042,57.92517558233901L78.93213322957357,61.73396840127555L83.57519989013672,55.34232051468978L88.21826655069987,45.962485106389245L92.86133321126302,47.576431577438925L97.50439987182617,40.38190122336855L102.14746653238932,53.715529268602324L106.79053319295248,54.93084406080615L111.43359985351563,50.82934280359605L116.07666651407878,37.033258465632414L120.71973317464193,39.253923424352266L125.36279983520508,52.27019511706961L130.00586649576823,56.627050945876974L134.6489331563314,70.01818270919382L139.29199981689453,66.0202452245146L143.9350664774577,55.599764453832734L148.57813313802083,51.66680449245439L153.221199798584,52.254138925888945L157.86426645914713,55.88498002142657L162.5073331197103,45.15898698004533L167.15039978027343,40.15335030210361L171.7934664408366,32.0230424867117L176.43653310139973,33.196022779980616L181.0795997619629,40.369499210457676L185.72266642252603,32.88514951074747L190.3657330830892,59.43509078096077L195.00879974365233,54.38652628934013L199.6518664042155,49.85767625362279L204.29493306477863,55.47597444799068L208.9379997253418,67.0430529893781L213.58106638590496,56.91100052768109L218.2241330464681,55.71455009410697L222.86719970703126,54.87461168713115L227.5102663675944,51.057332180057045L232.15333302815756,38.35617232030471L236.7963996887207,45.40126207186595L241.43946634928386,37.24697389353858L246.082533009847,43.654555270374864L250.72559967041016,48.61516845512202" fill="none"></path></g><g><path style="fill: none;" stroke="rgb(255, 112, 67)" stroke-width="2px" d="M23.215333302815754,153.25332829469266L27.858399963378908,148.15466423060636L32.50146662394206,144.07985307282527L37.14453328450521,128.3008424007225L41.78759994506836,113.78788051290545L46.43066660563151,105.5031452706268L51.07373326619466,99.15452278273301L55.716799926757815,84.722472421273L60.359866587320965,74.44372197235258L65.00293324788412,62.06515954199755L69.64599990844727,53.12656112979974L74.28906656901042,45.02210109664989L78.93213322957357,40.23624152938473L83.57519989013672,33.7510819312541L88.21826655069987,26.565832875835255L92.86133321126302,19.213656592781255L97.50439987182617,18.9589629521206L102.14746653238932,35.843322843808984L106.79053319295248,46.34088408409688L111.43359985351563,42.44846883999267L116.07666651407878,30.912309812034714L120.71973317464193,31.326816395347375L125.36279983520508,32.859520973284155L130.00586649576823,46.76635310455105L134.6489331563314,56.279912938420985L139.29199981689453,51.20900116908229L143.9350664774577,43.69291841435826L148.57813313802083,37.91563529482256L153.221199798584,40.50121942017849L157.86426645914713,43.28749443427138L162.5073331197103,39.561572040949386L167.15039978027343,30.6116296227121L171.7934664408366,34.491333299483735L176.43653310139973,34.47198044986883L181.0795997619629,36.38226959006042L185.72266642252603,32.40882345023638L190.3657330830892,43.19183151470846L195.00879974365233,44.58290554021211L199.6518664042155,42.82502531396464L204.29493306477863,47.16798347952043L208.9379997253418,54.14915257839772L213.58106638590496,55.53269237367616L218.2241330464681,60.79545986082806L222.86719970703126,62.68548274038364L227.5102663675944,49.63830903938945L232.15333302815756,35.03018634024706L236.7963996887207,30.836987579931602L241.43946634928386,37.35809952755404L246.082533009847,35.881264952714645L250.72559967041016,35.08512211027001" fill="none"></path></g></g></g></g><g opacity="0.2"><g><g><g><path style="fill: none;" stroke="rgb(0, 119, 187)" stroke-width="2px" d="M23.215333302815754,146.38757643366242L27.858399963378908,144.38214729470943L32.50146662394206,120.14261853780191L37.14453328450521,102.87849334862231L41.78759994506836,106.71496325571944L46.43066660563151,107.54329343210303L51.07373326619466,87.75058194697577L55.716799926757815,66.91156145148044L60.359866587320965,78.33379024642055L65.00293324788412,51.12971354788042L69.64599990844727,39.35871861856513L74.28906656901042,57.7127485849097L78.93213322957357,67.43472126028574L83.57519989013672,45.76737058840681L88.21826655069987,31.90375763835537L92.86133321126302,49.99621300391855L97.50439987182617,29.593150176392196L102.14746653238932,73.71258592973673L106.79053319295248,56.753631108135416L111.43359985351563,44.67746581124184L116.07666651407878,16.33988856873985L120.71973317464193,42.584847790505684L125.36279983520508,71.7943456725669L130.00586649576823,63.1622830779771L134.6489331563314,90.10478517573584L139.29199981689453,60.02335604687287L143.9350664774577,39.96906996096423L148.57813313802083,45.76737058840681L153.221199798584,53.13514003502278L157.86426645914713,61.331239658022334L162.5073331197103,29.070000974829423L167.15039978027343,32.64489628114516L171.7934664408366,19.82758173421926L176.43653310139973,34.9554931358658L181.0795997619629,51.12971354788042L185.72266642252603,21.65862515417403L190.3657330830892,99.26000227550968L195.00879974365233,46.81367959877489L199.6518664042155,43.06440122527156L204.29493306477863,63.90342172076689L208.9379997253418,84.39367077826579L213.58106638590496,41.7129218473252L218.2241330464681,53.91987444460947L222.86719970703126,53.614704077031185L227.5102663675944,45.331412920437835L232.15333302815756,19.304432532656488L236.7963996887207,55.968896698548726L241.43946634928386,25.01554162650528L246.082533009847,53.26592733541347L250.72559967041016,56.05608823214252" fill="none"></path></g><g><path style="fill: none;" stroke="rgb(255, 112, 67)" stroke-width="2px" d="M23.215333302815754,153.25332829469266L27.858399963378908,145.09546579215456L32.50146662394206,140.16803436135544L37.14453328450521,109.74472585032969L41.78759994506836,94.83975747217151L46.43066660563151,94.0423739258682L51.07373326619466,90.07589104708505L55.716799926757815,63.680404446580816L60.359866587320965,59.28456160468213L65.00293324788412,43.68443698010024L69.64599990844727,39.79973594122075L74.28906656901042,32.90951516053256L78.93213322957357,33.073078840339896L83.57519989013672,24.036047636831523L88.21826655069987,15.796405283247717L92.86133321126302,8.190577492538617L97.50439987182617,18.577030268942604L102.14746653238932,61.16557574419412L106.79053319295248,62.08562674673167L111.43359985351563,36.61020175600752L116.07666651407878,13.608703940475701L120.71973317464193,31.948562630800648L125.36279983520508,35.15854757961106L130.00586649576823,67.6264365617668L134.6489331563314,70.55018507091437L139.29199981689453,43.60265514019657L143.9350664774577,32.41881351386801L148.57813313802083,29.249719485009432L153.221199798584,44.37959322652396L157.86426645914713,47.46690541547887L162.5073331197103,33.97268968652279L167.15039978027343,17.18671777609516L171.7934664408366,40.31088835148248L176.43653310139973,34.442951176832686L181.0795997619629,39.24770321824972L185.72266642252603,26.448654342959895L190.3657330830892,59.3663434445858L195.00879974365233,46.6695165655543L199.6518664042155,40.18820498438445L204.29493306477863,53.68242071334053L208.9379997253418,64.62090621271555L213.58106638590496,57.608002064929316L218.2241330464681,68.68961108775703L222.86719970703126,65.52051705889845L227.5102663675944,30.067548491288658L232.15333302815756,13.118002293811154L236.7963996887207,24.547189439850722L241.43946634928386,47.13976744862166L246.082533009847,33.666013090505295L250.72559967041016,33.89090784661912" fill="none"></path></g></g></g></g></g></g><g transform="translate(51, 177)" clip-path="url(#clip_1)"><clipPath id="clip_1"><rect width="278" height="22"></rect></clipPath><g><g><line x1="0" y1="0" x2="0" y2="5" style="visibility: inherit;" fill="rgb(0, 0, 0)" stroke="rgb(204, 204, 204)" stroke-width="1px"></line><line x1="23.215333302815754" y1="0" x2="23.215333302815754" y2="5" style="visibility: inherit;" fill="rgb(0, 0, 0)" stroke="rgb(204, 204, 204)" stroke-width="1px"></line><line x1="46.43066660563151" y1="0" x2="46.43066660563151" y2="5" style="visibility: inherit;" fill="rgb(0, 0, 0)" stroke="rgb(204, 204, 204)" stroke-width="1px"></line><line x1="69.64599990844727" y1="0" x2="69.64599990844727" y2="5" style="visibility: inherit;" fill="rgb(0, 0, 0)" stroke="rgb(204, 204, 204)" stroke-width="1px"></line><line x1="92.86133321126302" y1="0" x2="92.86133321126302" y2="5" style="visibility: inherit;" fill="rgb(0, 0, 0)" stroke="rgb(204, 204, 204)" stroke-width="1px"></line><line x1="116.07666651407878" y1="0" x2="116.07666651407878" y2="5" style="visibility: inherit;" fill="rgb(0, 0, 0)" stroke="rgb(204, 204, 204)" stroke-width="1px"></line><line x1="139.29199981689453" y1="0" x2="139.29199981689453" y2="5" style="visibility: inherit;" fill="rgb(0, 0, 0)" stroke="rgb(204, 204, 204)" stroke-width="1px"></line><line x1="162.5073331197103" y1="0" x2="162.5073331197103" y2="5" style="visibility: inherit;" fill="rgb(0, 0, 0)" stroke="rgb(204, 204, 204)" stroke-width="1px"></line><line x1="185.72266642252603" y1="0" x2="185.72266642252603" y2="5" style="visibility: inherit;" fill="rgb(0, 0, 0)" stroke="rgb(204, 204, 204)" stroke-width="1px"></line><line x1="208.9379997253418" y1="0" x2="208.9379997253418" y2="5" style="visibility: inherit;" fill="rgb(0, 0, 0)" stroke="rgb(204, 204, 204)" stroke-width="1px"></line><line x1="232.15333302815756" y1="0" x2="232.15333302815756" y2="5" style="visibility: inherit;" fill="rgb(0, 0, 0)" stroke="rgb(204, 204, 204)" stroke-width="1px"></line><line x1="255.3686663309733" y1="0" x2="255.3686663309733" y2="5" style="visibility: inherit;" fill="rgb(0, 0, 0)" stroke="rgb(204, 204, 204)" stroke-width="1px"></line><line x1="278.58399963378906" y1="0" x2="278.58399963378906" y2="5" style="visibility: inherit;" fill="rgb(0, 0, 0)" stroke="rgb(204, 204, 204)" stroke-width="1px"></line></g><g transform="translate(0, 8)"><text style="text-anchor: middle; visibility: hidden; font-family: Roboto, sans-serif; font-size: 12px; font-weight: 200;" x="0" y="0" dx="0em" dy="0.95em" fill="rgb(50, 49, 63)" stroke="none" stroke-width="1px">-5</text><text style="text-anchor: middle; visibility: inherit; font-family: Roboto, sans-serif; font-size: 12px; font-weight: 200;" x="23.215333302815754" y="0" dx="0em" dy="0.95em" fill="rgb(50, 49, 63)" stroke="none" stroke-width="1px">0</text><text style="text-anchor: middle; visibility: inherit; font-family: Roboto, sans-serif; font-size: 12px; font-weight: 200;" x="46.43066660563151" y="0" dx="0em" dy="0.95em" fill="rgb(50, 49, 63)" stroke="none" stroke-width="1px">5</text><text style="text-anchor: middle; visibility: inherit; font-family: Roboto, sans-serif; font-size: 12px; font-weight: 200;" x="69.64599990844727" y="0" dx="0em" dy="0.95em" fill="rgb(50, 49, 63)" stroke="none" stroke-width="1px">10</text><text style="text-anchor: middle; visibility: inherit; font-family: Roboto, sans-serif; font-size: 12px; font-weight: 200;" x="92.86133321126302" y="0" dx="0em" dy="0.95em" fill="rgb(50, 49, 63)" stroke="none" stroke-width="1px">15</text><text style="text-anchor: middle; visibility: inherit; font-family: Roboto, sans-serif; font-size: 12px; font-weight: 200;" x="116.07666651407878" y="0" dx="0em" dy="0.95em" fill="rgb(50, 49, 63)" stroke="none" stroke-width="1px">20</text><text style="text-anchor: middle; visibility: inherit; font-family: Roboto, sans-serif; font-size: 12px; font-weight: 200;" x="139.29199981689453" y="0" dx="0em" dy="0.95em" fill="rgb(50, 49, 63)" stroke="none" stroke-width="1px">25</text><text style="text-anchor: middle; visibility: inherit; font-family: Roboto, sans-serif; font-size: 12px; font-weight: 200;" x="162.5073331197103" y="0" dx="0em" dy="0.95em" fill="rgb(50, 49, 63)" stroke="none" stroke-width="1px">30</text><text style="text-anchor: middle; visibility: inherit; font-family: Roboto, sans-serif; font-size: 12px; font-weight: 200;" x="185.72266642252603" y="0" dx="0em" dy="0.95em" fill="rgb(50, 49, 63)" stroke="none" stroke-width="1px">35</text><text style="text-anchor: middle; visibility: inherit; font-family: Roboto, sans-serif; font-size: 12px; font-weight: 200;" x="208.9379997253418" y="0" dx="0em" dy="0.95em" fill="rgb(50, 49, 63)" stroke="none" stroke-width="1px">40</text><text style="text-anchor: middle; visibility: inherit; font-family: Roboto, sans-serif; font-size: 12px; font-weight: 200;" x="232.15333302815756" y="0" dx="0em" dy="0.95em" fill="rgb(50, 49, 63)" stroke="none" stroke-width="1px">45</text><text style="text-anchor: middle; visibility: inherit; font-family: Roboto, sans-serif; font-size: 12px; font-weight: 200;" x="255.3686663309733" y="0" dx="0em" dy="0.95em" fill="rgb(50, 49, 63)" stroke="none" stroke-width="1px">50</text><text style="text-anchor: middle; visibility: hidden; font-family: Roboto, sans-serif; font-size: 12px; font-weight: 200;" x="278.58399963378906" y="0" dx="0em" dy="0.95em" fill="rgb(50, 49, 63)" stroke="none" stroke-width="1px">55</text></g><line x1="0" y1="0" x2="278.58399963378906" y2="0" fill="rgb(0, 0, 0)" stroke="rgb(204, 204, 204)" stroke-width="1px"></line></g></g></g></g></svg>