<svg viewBox="0 0 330 200" xmlns="http://www.w3.org/2000/svg"><g><g><g><g><g><line x1="30.70800018310547" y1="177.95999908447266" x2="25.70800018310547" y2="177.95999908447266" style="visibility: inherit;" fill="rgb(0, 0, 0)" stroke="rgb(204, 204, 204)" stroke-width="1px"></line><line x1="30.70800018310547" y1="164.27076838566708" x2="25.70800018310547" y2="164.27076838566708" style="visibility: inherit;" fill="rgb(0, 0, 0)" stroke="rgb(204, 204, 204)" stroke-width="1px"></line><line x1="30.70800018310547" y1="150.58153768686148" x2="25.70800018310547" y2="150.58153768686148" style="visibility: inherit;" fill="rgb(0, 0, 0)" stroke="rgb(204, 204, 204)" stroke-width="1px"></line><line x1="30.70800018310547" y1="136.89230698805588" x2="25.70800018310547" y2="136.89230698805588" style="visibility: inherit;" fill="rgb(0, 0, 0)" stroke="rgb(204, 204, 204)" stroke-width="1px"></line><line x1="30.70800018310547" y1="123.20307628925029" x2="25.70800018310547" y2="123.20307628925029" style="visibility: inherit;" fill="rgb(0, 0, 0)" stroke="rgb(204, 204, 204)" stroke-width="1px"></line><line x1="30.70800018310547" y1="109.51384559044472" x2="25.70800018310547" y2="109.51384559044472" style="visibility: inherit;" fill="rgb(0, 0, 0)" stroke="rgb(204, 204, 204)" stroke-width="1px"></line><line x1="30.70800018310547" y1="95.82461489163911" x2="25.70800018310547" y2="95.82461489163911" style="visibility: inherit;" fill="rgb(0, 0, 0)" stroke="rgb(204, 204, 204)" stroke-width="1px"></line><line x1="30.70800018310547" y1="82.13538419283354" x2="25.70800018310547" y2="82.13538419283354" style="visibility: inherit;" fill="rgb(0, 0, 0)" stroke="rgb(204, 204, 204)" stroke-width="1px"></line><line x1="30.70800018310547" y1="68.44615349402794" x2="25.70800018310547" y2="68.44615349402794" style="visibility: inherit;" fill="rgb(0, 0, 0)" stroke="rgb(204, 204, 204)" stroke-width="1px"></line><line x1="30.70800018310547" y1="54.75692279522236" x2="25.70800018310547" y2="54.75692279522236" style="visibility: inherit;" fill="rgb(0, 0, 0)" stroke="rgb(204, 204, 204)" stroke-width="1px"></line><line x1="30.70800018310547" y1="41.067692096416756" x2="25.70800018310547" y2="41.067692096416756" style="visibility: inherit;" fill="rgb(0, 0, 0)" stroke="rgb(204, 204, 204)" stroke-width="1px"></line><line x1="30.70800018310547" y1="27.37846139761118" x2="25.70800018310547" y2="27.37846139761118" style="visibility: inherit;" fill="rgb(0, 0, 0)" stroke="rgb(204, 204, 204)" stroke-width="1px"></line><line x1="30.70800018310547" y1="13.689230698805579" x2="25.70800018310547" y2="13.689230698805579" style="visibility: inherit;" fill="rgb(0, 0, 0)" stroke="rgb(204, 204, 204)" stroke-width="1px"></line><line x1="30.70800018310547" y1="0" x2="25.70800018310547" y2="0" style="visibility: inherit;" fill="rgb(0, 0, 0)" stroke="rgb(204, 204, 204)" stroke-width="1px"></line></g><g transform="translate(20.70800018310547, 0)"><text style="text-anchor: end; visibility: hidden; font-family: Roboto, sans-serif; font-size: 12px; font-weight: 200;" x="0" y="177.95999908447266" dx="0em" dy="0.3em" fill="rgb(50, 49, 63)" stroke="none" stroke-width="1px">-2</text><text style="text-anchor: end; visibility: inherit; font-family: Roboto, sans-serif; font-size: 12px; font-weight: 200;" x="0" y="164.27076838566708" dx="0em" dy="0.3em" fill="rgb(50, 49, 63)" stroke="none" stroke-width="1px">0</text><text style="text-anchor: end; visibility: hidden; font-family: Roboto, sans-serif; font-size: 12px; font-weight: 200;" x="0" y="150.58153768686148" dx="0em" dy="0.3em" fill="rgb(50, 49, 63)" stroke="none" stroke-width="1px">2</text><text style="text-anchor: end; visibility: inherit; font-family: Roboto, sans-serif; font-size: 12px; font-weight: 200;" x="0" y="136.89230698805588" dx="0em" dy="0.3em" fill="rgb(50, 49, 63)" stroke="none" stroke-width="1px">4</text><text style="text-anchor: end; visibility: hidden; font-family: Roboto, sans-serif; font-size: 12px; font-weight: 200;" x="0" y="123.20307628925029" dx="0em" dy="0.3em" fill="rgb(50, 49, 63)" stroke="none" stroke-width="1px">6</text><text style="text-anchor: end; visibility: inherit; font-family: Roboto, sans-serif; font-size: 12px; font-weight: 200;" x="0" y="109.51384559044472" dx="0em" dy="0.3em" fill="rgb(50, 49, 63)" stroke="none" stroke-width="1px">8</text><text style="text-anchor: end; visibility: hidden; font-family: Roboto, sans-serif; font-size: 12px; font-weight: 200;" x="0" y="95.82461489163911" dx="0em" dy="0.3em" fill="rgb(50, 49, 63)" stroke="none" stroke-width="1px">10</text><text style="text-anchor: end; visibility: inherit; font-family: Roboto, sans-serif; font-size: 12px; font-weight: 200;" x="0" y="82.13538419283354" dx="0em" dy="0.3em" fill="rgb(50, 49, 63)" stroke="none" stroke-width="1px">12</text><text style="text-anchor: end; visibility: hidden; font-family: Roboto, sans-serif; font-size: 12px; font-weight: 200;" x="0" y="68.44615349402794" dx="0em" dy="0.3em" fill="rgb(50, 49, 63)" stroke="none" stroke-width="1px">14</text><text style="text-anchor: end; visibility: inherit; font-family: Roboto, sans-serif; font-size: 12px; font-weight: 200;" x="0" y="54.75692279522236" dx="0em" dy="0.3em" fill="rgb(50, 49, 63)" stroke="none" stroke-width="1px">16</text><text style="text-anchor: end; visibility: hidden; font-family: Roboto, sans-serif; font-size: 12px; font-weight: 200;" x="0" y="41.067692096416756" dx="0em" dy="0.3em" fill="rgb(50, 49, 63)" stroke="none" stroke-width="1px">18</text><text style="text-anchor: end; visibility: inherit; font-family: Roboto, sans-serif; font-size: 12px; font-weight: 200;" x="0" y="27.37846139761118" dx="0em" dy="0.3em" fill="rgb(50, 49, 63)" stroke="none" stroke-width="1px">20</text><text style="text-anchor: end; visibility: hidden; font-family: Roboto, sans-serif; font-size: 12px; font-weight: 200;" x="0" y="13.689230698805579" dx="0em" dy="0.3em" fill="rgb(50, 49, 63)" stroke="none" stroke-width="1px">22</text><text style="text-anchor: end; visibility: hidden; font-family: Roboto, sans-serif; font-size: 12px; font-weight: 200;" x="0" y="0" dx="0em" dy="0.3em" fill="rgb(50, 49, 63)" stroke="none" stroke-width="1px">24</text></g><line x1="30.70800018310547" y1="0" x2="30.70800018310547" y2="177.95999908447266" fill="rgb(0, 0, 0)" stroke="rgb(204, 204, 204)" stroke-width="1px"></line></g></g><g transform="translate(30, 0)" clip-path="url(#clip_0)"><clipPath id="clip_0"><rect width="299" height="177"></rect></clipPath><g><g><g><line x1="0" y1="0" x2="0" y2="177.95999908447266" fill="rgb(0, 0, 0)" stroke="rgb(60, 60, 60)" stroke-width="1px" opacity="0.25"></line><line x1="24.94099998474121" y1="0" x2="24.94099998474121" y2="177.95999908447266" fill="rgb(0, 0, 0)" stroke="rgb(60, 60, 60)" stroke-width="1px" opacity="0.25"></line><line x1="49.88199996948242" y1="0" x2="49.88199996948242" y2="177.95999908447266" fill="rgb(0, 0, 0)" stroke="rgb(60, 60, 60)" stroke-width="1px" opacity="0.25"></line><line x1="74.82299995422363" y1="0" x2="74.82299995422363" y2="177.95999908447266" fill="rgb(0, 0, 0)" stroke="rgb(60, 60, 60)" stroke-width="1px" opacity="0.25"></line><line x1="99.76399993896484" y1="0" x2="99.76399993896484" y2="177.95999908447266" fill="rgb(0, 0, 0)" stroke="rgb(60, 60, 60)" stroke-width="1px" opacity="0.25"></line><line x1="124.70499992370605" y1="0" x2="124.70499992370605" y2="177.95999908447266" fill="rgb(0, 0, 0)" stroke="rgb(60, 60, 60)" stroke-width="1px" opacity="0.25"></line><line x1="149.64599990844727" y1="0" x2="149.64599990844727" y2="177.95999908447266" fill="rgb(0, 0, 0)" stroke="rgb(60, 60, 60)" stroke-width="1px" opacity="0.25"></line><line x1="174.58699989318848" y1="0" x2="174.58699989318848" y2="177.95999908447266" fill="rgb(0, 0, 0)" stroke="rgb(60, 60, 60)" stroke-width="1px" opacity="0.25"></line><line x1="199.5279998779297" y1="0" x2="199.5279998779297" y2="177.95999908447266" fill="rgb(0, 0, 0)" stroke="rgb(60, 60, 60)" stroke-width="1px" opacity="0.25"></line><line x1="224.4689998626709" y1="0" x2="224.4689998626709" y2="177.95999908447266" fill="rgb(0, 0, 0)" stroke="rgb(60, 60, 60)" stroke-width="1px" opacity="0.25"></line><line x1="249.4099998474121" y1="0" x2="249.4099998474121" y2="177.95999908447266" fill="rgb(0, 0, 0)" stroke="rgb(60, 60, 60)" stroke-width="1px" opacity="0.25"></line><line x1="274.3509998321533" y1="0" x2="274.3509998321533" y2="177.95999908447266" fill="rgb(0, 0, 0)" stroke="rgb(60, 60, 60)" stroke-width="1px" opacity="0.25"></line><line x1="299.29199981689453" y1="0" x2="299.29199981689453" y2="177.95999908447266" fill="rgb(0, 0, 0)" stroke="rgb(60, 60, 60)" stroke-width="1px" opacity="0.25"></line></g><g><line x1="0" y1="177.95999908447266" x2="299.29199981689453" y2="177.95999908447266" fill="rgb(0, 0, 0)" stroke="rgb(60, 60, 60)" stroke-width="1px" opacity="0.25"></line><line x1="0" y1="164.27076838566708" x2="299.29199981689453" y2="164.27076838566708" fill="rgb(0, 0, 0)" stroke="rgb(60, 60, 60)" stroke-width="1px" opacity="0.25"></line><line x1="0" y1="150.58153768686148" x2="299.29199981689453" y2="150.58153768686148" fill="rgb(0, 0, 0)" stroke="rgb(60, 60, 60)" stroke-width="1px" opacity="0.25"></line><line x1="0" y1="136.89230698805588" x2="299.29199981689453" y2="136.89230698805588" fill="rgb(0, 0, 0)" stroke="rgb(60, 60, 60)" stroke-width="1px" opacity="0.25"></line><line x1="0" y1="123.20307628925029" x2="299.29199981689453" y2="123.20307628925029" fill="rgb(0, 0, 0)" stroke="rgb(60, 60, 60)" stroke-width="1px" opacity="0.25"></line><line x1="0" y1="109.51384559044472" x2="299.29199981689453" y2="109.51384559044472" fill="rgb(0, 0, 0)" stroke="rgb(60, 60, 60)" stroke-width="1px" opacity="0.25"></line><line x1="0" y1="95.82461489163911" x2="299.29199981689453" y2="95.82461489163911" fill="rgb(0, 0, 0)" stroke="rgb(60, 60, 60)" stroke-width="1px" opacity="0.25"></line><line x1="0" y1="82.13538419283354" x2="299.29199981689453" y2="82.13538419283354" fill="rgb(0, 0, 0)" stroke="rgb(60, 60, 60)" stroke-width="1px" opacity="0.25"></line><line x1="0" y1="68.44615349402794" x2="299.29199981689453" y2="68.44615349402794" fill="rgb(0, 0, 0)" stroke="rgb(60, 60, 60)" stroke-width="1px" opacity="0.25"></line><line x1="0" y1="54.75692279522236" x2="299.29199981689453" y2="54.75692279522236" fill="rgb(0, 0, 0)" stroke="rgb(60, 60, 60)" stroke-width="1px" opacity="0.25"></line><line x1="0" y1="41.067692096416756" x2="299.29199981689453" y2="41.067692096416756" fill="rgb(0, 0, 0)" stroke="rgb(60, 60, 60)" stroke-width="1px" opacity="0.25"></line><line x1="0" y1="27.37846139761118" x2="299.29199981689453" y2="27.37846139761118" fill="rgb(0, 0, 0)" stroke="rgb(60, 60, 60)" stroke-width="1px" opacity="0.25"></line><line x1="0" y1="13.689230698805579" x2="299.29199981689453" y2="13.689230698805579" fill="rgb(0, 0, 0)" stroke="rgb(60, 60, 60)" stroke-width="1px" opacity="0.25"></line><line x1="0" y1="0" x2="299.29199981689453" y2="0" fill="rgb(0, 0, 0)" stroke="rgb(60, 60, 60)" stroke-width="1px" opacity="0.25"></line></g></g></g><g><g><line x1="0" y1="164.27076838566708" x2="299.29199981689453" y2="164.27076838566708" fill="rgb(0, 0, 0)" stroke="rgb(153, 153, 153)" stroke-width="1.5px"></line></g></g><g><g><line x1="24.94099998474121" y1="0" x2="24.94099998474121" y2="177.95999908447266" fill="rgb(0, 0, 0)" stroke="rgb(153, 153, 153)" stroke-width="1.5px"></line></g></g><g><g><g><g><g><path style="fill: none;" stroke="rgb(0, 119, 187)" stroke-width="2px" d="M29.929199981689454,-28.623937705308258L34.9173999786377,24.704510302833235L39.905599975585936,71.09669497707345L44.893799972534175,86.36187602177058L49.88199996948242,92.32503803174475L54.87019996643066,108.04708656080967L59.85839996337891,122.03596560595504L64.84659996032715,125.99036481027115L69.8347999572754,134.88277870336466L74.82299995422363,141.32460138942582L79.81119995117187,143.82830990417153L84.79939994812011,145.85177973607833L89.78759994506835,150.0263100034094L94.77579994201659,151.97887311883292L99.76399993896484,146.6227186304287L104.75219993591308,149.21680293323936L109.74039993286132,134.9035800073336L114.72859992980958,134.05081131254207L119.71679992675782,134.26445935431443L124.70499992370605,142.58380115217523L129.6931999206543,144.92296313306605L134.68139991760253,141.99268396829217L139.6695999145508,136.42988922445235L144.657799911499,119.26120207948709L149.64599990844727,126.957902570881L154.63419990539552,136.92604596594438L159.62239990234374,131.51718782748068L164.610599899292,122.33871797627631L169.59879989624022,115.3215582119183L174.58699989318848,127.2763577990098L179.5751998901367,135.6785945025593L184.56339988708498,139.692760054998L189.55159988403318,142.56755626976056L194.53979988098146,130.46798383993803L199.5279998779297,135.85164422919917L204.51619987487794,75.77407242499858L209.50439987182617,89.69421530726032L214.49259986877442,103.44907813081717L219.48079986572264,89.44502569842703L224.4689998626709,81.698522630412L229.45719985961915,93.43639401675095L234.44539985656738,77.40399480509976L239.43359985351563,79.1131346919402L244.42179985046386,86.18856939022037L249.4099998474121,103.85185884788223L254.39819984436033,98.93622007711873L259.3863998413086,106.97015406973411L264.3745998382568,92.57024061044453L269.36279983520507,58.124374098421974" fill="none"></path></g><g><path style="fill: none;" stroke="rgb(255, 112, 67)" stroke-width="2px" d="M29.929199981689454,-9.424037263144744L34.9173999786377,32.432342413947865L39.905599975585936,75.57488510649684L44.893799972534175,104.95471646571237L49.88199996948242,116.65126360838164L54.87019996643066,122.67547540216955L59.85839996337891,133.65133263877186L64.84659996032715,141.32063986213439L69.8347999572754,143.9635718141117L74.82299995422363,148.57614734468245L79.81119995117187,150.82892712495865L84.79939994812011,151.99253492547382L89.78759994506835,153.8653016283631L94.77579994201659,156.74291806957476L99.76399993896484,158.95231082622132L104.75219993591308,156.27420209869044L109.74039993286132,147.11217724023516L114.72859992980958,143.93811370738544L119.71679992675782,144.98505690784597L124.70499992370605,151.30299989897037L129.6931999206543,153.32372708444962L134.68139991760253,154.14267168410564L139.6695999145508,146.4251806386283L144.657799911499,133.83770003737692L149.64599990844727,138.94532063692404L154.63419990539552,144.56307289319062L159.62239990234374,145.2138652514658L164.610599899292,141.95924339833593L169.59879989624022,140.15174592148017L174.58699989318848,141.71700119632018L179.5751998901367,145.74085254867717L184.56339988708498,146.1230618038187L189.55159988403318,143.09642463922117L194.53979988098146,140.9535800486026L199.5279998779297,144.34739972914093L204.51619987487794,117.86360343326703L209.50439987182617,100.94799379247779L214.49259986877442,112.44455572854118L219.48079986572264,115.4774121278418L224.4689998626709,105.27269446474374L229.45719985961915,95.3344785503253L234.44539985656738,81.09823142793269L239.43359985351563,75.5020484800324L244.42179985046386,96.76981009375707L249.4099998474121,120.2291603403434L254.39819984436033,121.5629630247443L259.3863998413086,121.03707299573409L264.3745998382568,123.8656588258596L269.36279983520507,118.9829230268458" fill="none"></path></g></g></g></g><g opacity="0.2"><g><g><g><path style="fill: none;" stroke="rgb(0, 119, 187)" stroke-width="2px" d="M29.929199981689454,-16.69224876326078L34.9173999786377,75.89982039064908L39.905599975585936,125.65390415397997L44.893799972534175,106.29209639372716L49.88199996948242,100.5742378298626L54.87019996643066,130.529867510149L59.85839996337891,142.43188554701584L64.84659996032715,131.82233553413593L69.8347999572754,148.08697697712378L74.82299995422363,150.92890856087314L79.81119995117187,147.57024760511663L84.79939994812011,148.8803775038572L89.78759994506835,156.27992706503375L94.77579994201659,154.90542262732242L99.76399993896484,138.5922644729457L104.75219993591308,153.10683165791627L109.74039993286132,113.43737974422528L114.72859992980958,132.77178818108223L119.71679992675782,134.58491188869576L124.70499992370605,155.06235759649044L129.6931999206543,148.4316291332809L134.68139991760253,137.5973230743818L139.6695999145508,128.08576300529967L144.657799911499,93.5082933897194L149.64599990844727,138.5029204850601L154.63419990539552,151.87823555279255L159.62239990234374,123.40390892365647L164.610599899292,108.57102165413771L169.59879989624022,104.79582244365884L174.58699989318848,145.20855321530544L179.5751998901367,148.2819478861197L184.56339988708498,145.71400790444525L189.55159988403318,146.87975038598861L194.53979988098146,112.31862571520483L199.5279998779297,143.92713467426748L204.51619987487794,-14.342284351803913L209.50439987182617,110.5744295014325L214.49259986877442,124.08137228954072L219.48079986572264,68.43894709664164L224.4689998626709,70.07876804392212L229.45719985961915,111.04320108213787L234.44539985656738,53.355395999195856L239.43359985351563,81.67684452146064L244.42179985046386,96.80172143580198L249.4099998474121,130.34679303162093L254.39819984436033,91.56276192143336L259.3863998413086,119.0210550582062L264.3745998382568,70.97037042199513L269.36279983520507,6.455574331084237" fill="none"></path></g><g><path style="fill: none;" stroke="rgb(255, 112, 67)" stroke-width="2px" d="M24.94099998474121,-73.31438825010153L29.929199981689454,28.910173329029377L34.9173999786377,72.61446690395678L39.905599975585936,126.31051531293437L44.893799972534175,143.3130242883042L49.88199996948242,132.83179906366465L54.87019996643066,131.29019465467493L59.85839996337891,149.6542378579675L64.84659996032715,152.63137833035898L69.8347999572754,147.8880177449367L74.82299995422363,155.45317491996187L79.81119995117187,154.19583726729144L84.79939994812011,153.73414724488723L89.78759994506835,156.67078273776661L94.77579994201659,161.05596020128715L99.76399993896484,162.26484172624237L104.75219993591308,152.25817229325375L109.74039993286132,133.37146618967128L114.72859992980958,139.1775019447432L119.71679992675782,146.55537601378128L124.70499992370605,160.77956789464815L129.6931999206543,156.3547513697797L134.68139991760253,155.37107241495713L139.6695999145508,134.8490354914512L144.657799911499,114.95656860192462L149.64599990844727,146.606729754576L154.63419990539552,152.9896869033022L159.62239990234374,146.19005278975902L164.610599899292,137.0773136166078L169.59879989624022,137.44050070517292L174.58699989318848,144.06488358952456L179.5751998901367,151.77662877660094L184.56339988708498,146.6963756409028L189.55159988403318,138.55646910911673L194.53979988098146,137.73931325476727L199.5279998779297,149.43812916243516L204.51619987487794,78.1379093992039L209.50439987182617,75.57457948832122L214.49259986877442,129.6893985686028L219.48079986572264,120.02669671665731L224.4689998626709,89.96561799055836L229.45719985961915,80.42715469065409L234.44539985656738,59.74386075462015L239.43359985351563,67.1077740606057L244.42179985046386,128.6714525088173L249.4099998474121,155.4181857065652L254.39819984436033,123.56366705122086L259.3863998413086,120.24823795224829L264.3745998382568,128.10853757095256L269.36279983520507,111.6588193284238" fill="none"></path></g></g></g></g></g></g><g transform="translate(30, 177)" clip-path="url(#clip_1)"><clipPath id="clip_1"><rect width="299" height="22"></rect></clipPath><g><g><line x1="0" y1="0" x2="0" y2="5" style="visibility: inherit;" fill="rgb(0, 0, 0)" stroke="rgb(204, 204, 204)" stroke-width="1px"></line><line x1="24.94099998474121" y1="0" x2="24.94099998474121" y2="5" style="visibility: inherit;" fill="rgb(0, 0, 0)" stroke="rgb(204, 204, 204)" stroke-width="1px"></line><line x1="49.88199996948242" y1="0" x2="49.88199996948242" y2="5" style="visibility: inherit;" fill="rgb(0, 0, 0)" stroke="rgb(204, 204, 204)" stroke-width="1px"></line><line x1="74.82299995422363" y1="0" x2="74.82299995422363" y2="5" style="visibility: inherit;" fill="rgb(0, 0, 0)" stroke="rgb(204, 204, 204)" stroke-width="1px"></line><line x1="99.76399993896484" y1="0" x2="99.76399993896484" y2="5" style="visibility: inherit;" fill="rgb(0, 0, 0)" stroke="rgb(204, 204, 204)" stroke-width="1px"></line><line x1="124.70499992370605" y1="0" x2="124.70499992370605" y2="5" style="visibility: inherit;" fill="rgb(0, 0, 0)" stroke="rgb(204, 204, 204)" stroke-width="1px"></line><line x1="149.64599990844727" y1="0" x2="149.64599990844727" y2="5" style="visibility: inherit;" fill="rgb(0, 0, 0)" stroke="rgb(204, 204, 204)" stroke-width="1px"></line><line x1="174.58699989318848" y1="0" x2="174.58699989318848" y2="5" style="visibility: inherit;" fill="rgb(0, 0, 0)" stroke="rgb(204, 204, 204)" stroke-width="1px"></line><line x1="199.5279998779297" y1="0" x2="199.5279998779297" y2="5" style="visibility: inherit;" fill="rgb(0, 0, 0)" stroke="rgb(204, 204, 204)" stroke-width="1px"></line><line x1="224.4689998626709" y1="0" x2="224.4689998626709" y2="5" style="visibility: inherit;" fill="rgb(0, 0, 0)" stroke="rgb(204, 204, 204)" stroke-width="1px"></line><line x1="249.4099998474121" y1="0" x2="249.4099998474121" y2="5" style="visibility: inherit;" fill="rgb(0, 0, 0)" stroke="rgb(204, 204, 204)" stroke-width="1px"></line><line x1="274.3509998321533" y1="0" x2="274.3509998321533" y2="5" style="visibility: inherit;" fill="rgb(0, 0, 0)" stroke="rgb(204, 204, 204)" stroke-width="1px"></line><line x1="299.29199981689453" y1="0" x2="299.29199981689453" y2="5" style="visibility: inherit;" fill="rgb(0, 0, 0)" stroke="rgb(204, 204, 204)" stroke-width="1px"></line></g><g transform="translate(0, 8)"><text style="text-anchor: middle; visibility: hidden; font-family: Roboto, sans-serif; font-size: 12px; font-weight: 200;" x="0" y="0" dx="0em" dy="0.95em" fill="rgb(50, 49, 63)" stroke="none" stroke-width="1px">-5</text><text style="text-anchor: middle; visibility: inherit; font-family: Roboto, sans-serif; font-size: 12px; font-weight: 200;" x="24.94099998474121" y="0" dx="0em" dy="0.95em" fill="rgb(50, 49, 63)" stroke="none" stroke-width="1px">0</text><text style="text-anchor: middle; visibility: inherit; font-family: Roboto, sans-serif; font-size: 12px; font-weight: 200;" x="49.88199996948242" y="0" dx="0em" dy="0.95em" fill="rgb(50, 49, 63)" stroke="none" stroke-width="1px">5</text><text style="text-anchor: middle; visibility: inherit; font-family: Roboto, sans-serif; font-size: 12px; font-weight: 200;" x="74.82299995422363" y="0" dx="0em" dy="0.95em" fill="rgb(50, 49, 63)" stroke="none" stroke-width="1px">10</text><text style="text-anchor: middle; visibility: inherit; font-family: Roboto, sans-serif; font-size: 12px; font-weight: 200;" x="99.76399993896484" y="0" dx="0em" dy="0.95em" fill="rgb(50, 49, 63)" stroke="none" stroke-width="1px">15</text><text style="text-anchor: middle; visibility: inherit; font-family: Roboto, sans-serif; font-size: 12px; font-weight: 200;" x="124.70499992370605" y="0" dx="0em" dy="0.95em" fill="rgb(50, 49, 63)" stroke="none" stroke-width="1px">20</text><text style="text-anchor: middle; visibility: inherit; font-family: Roboto, sans-serif; font-size: 12px; font-weight: 200;" x="149.64599990844727" y="0" dx="0em" dy="0.95em" fill="rgb(50, 49, 63)" stroke="none" stroke-width="1px">25</text><text style="text-anchor: middle; visibility: inherit; font-family: Roboto, sans-serif; font-size: 12px; font-weight: 200;" x="174.58699989318848" y="0" dx="0em" dy="0.95em" fill="rgb(50, 49, 63)" stroke="none" stroke-width="1px">30</text><text style="text-anchor: middle; visibility: inherit; font-family: Roboto, sans-serif; font-size: 12px; font-weight: 200;" x="199.5279998779297" y="0" dx="0em" dy="0.95em" fill="rgb(50, 49, 63)" stroke="none" stroke-width="1px">35</text><text style="text-anchor: middle; visibility: inherit; font-family: Roboto, sans-serif; font-size: 12px; font-weight: 200;" x="224.4689998626709" y="0" dx="0em" dy="0.95em" fill="rgb(50, 49, 63)" stroke="none" stroke-width="1px">40</text><text style="text-anchor: middle; visibility: inherit; font-family: Roboto, sans-serif; font-size: 12px; font-weight: 200;" x="249.4099998474121" y="0" dx="0em" dy="0.95em" fill="rgb(50, 49, 63)" stroke="none" stroke-width="1px">45</text><text style="text-anchor: middle; visibility: inherit; font-family: Roboto, sans-serif; font-size: 12px; font-weight: 200;" x="274.3509998321533" y="0" dx="0em" dy="0.95em" fill="rgb(50, 49, 63)" stroke="none" stroke-width="1px">50</text><text style="text-anchor: middle; visibility: hidden; font-family: Roboto, sans-serif; font-size: 12px; font-weight: 200;" x="299.29199981689453" y="0" dx="0em" dy="0.95em" fill="rgb(50, 49, 63)" stroke="none" stroke-width="1px">55</text></g><line x1="0" y1="0" x2="299.29199981689453" y2="0" fill="rgb(0, 0, 0)" stroke="rgb(204, 204, 204)" stroke-width="1px"></line></g></g></g></g></svg>