<svg viewBox="0 0 1006 400" xmlns="http://www.w3.org/2000/svg"><g><g><g><g><g><line x1="30.70800018310547" y1="377.95999908447266" x2="25.70800018310547" y2="377.95999908447266" style="visibility: inherit;" fill="rgb(0, 0, 0)" stroke="rgb(204, 204, 204)" stroke-width="1px"></line><line x1="30.70800018310547" y1="323.96571350097656" x2="25.70800018310547" y2="323.96571350097656" style="visibility: inherit;" fill="rgb(0, 0, 0)" stroke="rgb(204, 204, 204)" stroke-width="1px"></line><line x1="30.70800018310547" y1="269.97142791748047" x2="25.70800018310547" y2="269.97142791748047" style="visibility: inherit;" fill="rgb(0, 0, 0)" stroke="rgb(204, 204, 204)" stroke-width="1px"></line><line x1="30.70800018310547" y1="215.97714233398438" x2="25.70800018310547" y2="215.97714233398438" style="visibility: inherit;" fill="rgb(0, 0, 0)" stroke="rgb(204, 204, 204)" stroke-width="1px"></line><line x1="30.70800018310547" y1="161.98285675048828" x2="25.70800018310547" y2="161.98285675048828" style="visibility: inherit;" fill="rgb(0, 0, 0)" stroke="rgb(204, 204, 204)" stroke-width="1px"></line><line x1="30.70800018310547" y1="107.98857116699219" x2="25.70800018310547" y2="107.98857116699219" style="visibility: inherit;" fill="rgb(0, 0, 0)" stroke="rgb(204, 204, 204)" stroke-width="1px"></line><line x1="30.70800018310547" y1="53.994285583496115" x2="25.70800018310547" y2="53.994285583496115" style="visibility: inherit;" fill="rgb(0, 0, 0)" stroke="rgb(204, 204, 204)" stroke-width="1px"></line><line x1="30.70800018310547" y1="0" x2="25.70800018310547" y2="0" style="visibility: inherit;" fill="rgb(0, 0, 0)" stroke="rgb(204, 204, 204)" stroke-width="1px"></line></g><g transform="translate(20.70800018310547, 0)"><text style="text-anchor: end; visibility: hidden; font-family: Roboto, sans-serif; font-size: 12px; font-weight: 200;" x="0" y="377.95999908447266" dx="0em" dy="0.3em" fill="rgb(50, 49, 63)" stroke="none" stroke-width="1px">-5</text><text style="text-anchor: end; visibility: inherit; font-family: Roboto, sans-serif; font-size: 12px; font-weight: 200;" x="0" y="323.96571350097656" dx="0em" dy="0.3em" fill="rgb(50, 49, 63)" stroke="none" stroke-width="1px">0</text><text style="text-anchor: end; visibility: inherit; font-family: Roboto, sans-serif; font-size: 12px; font-weight: 200;" x="0" y="269.97142791748047" dx="0em" dy="0.3em" fill="rgb(50, 49, 63)" stroke="none" stroke-width="1px">5</text><text style="text-anchor: end; visibility: inherit; font-family: Roboto, sans-serif; font-size: 12px; font-weight: 200;" x="0" y="215.97714233398438" dx="0em" dy="0.3em" fill="rgb(50, 49, 63)" stroke="none" stroke-width="1px">10</text><text style="text-anchor: end; visibility: inherit; font-family: Roboto, sans-serif; font-size: 12px; font-weight: 200;" x="0" y="161.98285675048828" dx="0em" dy="0.3em" fill="rgb(50, 49, 63)" stroke="none" stroke-width="1px">15</text><text style="text-anchor: end; visibility: inherit; font-family: Roboto, sans-serif; font-size: 12px; font-weight: 200;" x="0" y="107.98857116699219" dx="0em" dy="0.3em" fill="rgb(50, 49, 63)" stroke="none" stroke-width="1px">20</text><text style="text-anchor: end; visibility: inherit; font-family: Roboto, sans-serif; font-size: 12px; font-weight: 200;" x="0" y="53.994285583496115" dx="0em" dy="0.3em" fill="rgb(50, 49, 63)" stroke="none" stroke-width="1px">25</text><text style="text-anchor: end; visibility: hidden; font-family: Roboto, sans-serif; font-size: 12px; font-weight: 200;" x="0" y="0" dx="0em" dy="0.3em" fill="rgb(50, 49, 63)" stroke="none" stroke-width="1px">30</text></g><line x1="30.70800018310547" y1="0" x2="30.70800018310547" y2="377.95999908447266" fill="rgb(0, 0, 0)" stroke="rgb(204, 204, 204)" stroke-width="1px"></line></g></g><g transform="translate(30, 0)" clip-path="url(#clip_0)"><clipPath id="clip_0"><rect width="975" height="377"></rect></clipPath><g><g><g><line x1="0" y1="0" x2="0" y2="377.95999908447266" fill="rgb(0, 0, 0)" stroke="rgb(60, 60, 60)" stroke-width="1px" opacity="0.25"></line><line x1="81.27433331807454" y1="0" x2="81.27433331807454" y2="377.95999908447266" fill="rgb(0, 0, 0)" stroke="rgb(60, 60, 60)" stroke-width="1px" opacity="0.25"></line><line x1="162.54866663614908" y1="0" x2="162.54866663614908" y2="377.95999908447266" fill="rgb(0, 0, 0)" stroke="rgb(60, 60, 60)" stroke-width="1px" opacity="0.25"></line><line x1="243.82299995422363" y1="0" x2="243.82299995422363" y2="377.95999908447266" fill="rgb(0, 0, 0)" stroke="rgb(60, 60, 60)" stroke-width="1px" opacity="0.25"></line><line x1="325.09733327229816" y1="0" x2="325.09733327229816" y2="377.95999908447266" fill="rgb(0, 0, 0)" stroke="rgb(60, 60, 60)" stroke-width="1px" opacity="0.25"></line><line x1="406.37166659037274" y1="0" x2="406.37166659037274" y2="377.95999908447266" fill="rgb(0, 0, 0)" stroke="rgb(60, 60, 60)" stroke-width="1px" opacity="0.25"></line><line x1="487.64599990844727" y1="0" x2="487.64599990844727" y2="377.95999908447266" fill="rgb(0, 0, 0)" stroke="rgb(60, 60, 60)" stroke-width="1px" opacity="0.25"></line><line x1="568.9203332265218" y1="0" x2="568.9203332265218" y2="377.95999908447266" fill="rgb(0, 0, 0)" stroke="rgb(60, 60, 60)" stroke-width="1px" opacity="0.25"></line><line x1="650.1946665445963" y1="0" x2="650.1946665445963" y2="377.95999908447266" fill="rgb(0, 0, 0)" stroke="rgb(60, 60, 60)" stroke-width="1px" opacity="0.25"></line><line x1="731.4689998626709" y1="0" x2="731.4689998626709" y2="377.95999908447266" fill="rgb(0, 0, 0)" stroke="rgb(60, 60, 60)" stroke-width="1px" opacity="0.25"></line><line x1="812.7433331807455" y1="0" x2="812.7433331807455" y2="377.95999908447266" fill="rgb(0, 0, 0)" stroke="rgb(60, 60, 60)" stroke-width="1px" opacity="0.25"></line><line x1="894.01766649882" y1="0" x2="894.01766649882" y2="377.95999908447266" fill="rgb(0, 0, 0)" stroke="rgb(60, 60, 60)" stroke-width="1px" opacity="0.25"></line><line x1="975.2919998168945" y1="0" x2="975.2919998168945" y2="377.95999908447266" fill="rgb(0, 0, 0)" stroke="rgb(60, 60, 60)" stroke-width="1px" opacity="0.25"></line></g><g><line x1="0" y1="377.95999908447266" x2="975.2919998168945" y2="377.95999908447266" fill="rgb(0, 0, 0)" stroke="rgb(60, 60, 60)" stroke-width="1px" opacity="0.25"></line><line x1="0" y1="323.96571350097656" x2="975.2919998168945" y2="323.96571350097656" fill="rgb(0, 0, 0)" stroke="rgb(60, 60, 60)" stroke-width="1px" opacity="0.25"></line><line x1="0" y1="269.97142791748047" x2="975.2919998168945" y2="269.97142791748047" fill="rgb(0, 0, 0)" stroke="rgb(60, 60, 60)" stroke-width="1px" opacity="0.25"></line><line x1="0" y1="215.97714233398438" x2="975.2919998168945" y2="215.97714233398438" fill="rgb(0, 0, 0)" stroke="rgb(60, 60, 60)" stroke-width="1px" opacity="0.25"></line><line x1="0" y1="161.98285675048828" x2="975.2919998168945" y2="161.98285675048828" fill="rgb(0, 0, 0)" stroke="rgb(60, 60, 60)" stroke-width="1px" opacity="0.25"></line><line x1="0" y1="107.98857116699219" x2="975.2919998168945" y2="107.98857116699219" fill="rgb(0, 0, 0)" stroke="rgb(60, 60, 60)" stroke-width="1px" opacity="0.25"></line><line x1="0" y1="53.994285583496115" x2="975.2919998168945" y2="53.994285583496115" fill="rgb(0, 0, 0)" stroke="rgb(60, 60, 60)" stroke-width="1px" opacity="0.25"></line><line x1="0" y1="0" x2="975.2919998168945" y2="0" fill="rgb(0, 0, 0)" stroke="rgb(60, 60, 60)" stroke-width="1px" opacity="0.25"></line></g></g></g><g><g><line x1="0" y1="323.96571350097656" x2="975.2919998168945" y2="323.96571350097656" fill="rgb(0, 0, 0)" stroke="rgb(153, 153, 153)" stroke-width="1.5px"></line></g></g><g><g><line x1="81.27433331807454" y1="0" x2="81.27433331807454" y2="377.95999908447266" fill="rgb(0, 0, 0)" stroke="rgb(153, 153, 153)" stroke-width="1.5px"></line></g></g><g><g><g><g><g><path style="fill: none;" stroke="rgb(0, 119, 187)" stroke-width="2px" d="M97.52919998168946,-23.227778057237177L113.78406664530436,56.09598790861356L130.03893330891927,132.94495422341507L146.29379997253417,184.0344299060639L162.54866663614908,223.86072281365085L178.80353329976398,233.59069809784623L195.05839996337892,255.95466616226338L211.31326662699382,254.11465890323655L227.56813329060873,265.3553229795378L243.82299995422363,275.11359624466905L260.07786661783854,288.0669721900555L276.33273328145344,296.7670609051333L292.58759994506835,300.58816369530257L308.84246660868325,299.83048059017045L325.09733327229816,285.9755650248571L341.35219993591306,275.57053602570676L357.60706659952797,276.55925596884083L373.86193326314293,281.726621514523L390.11679992675784,276.29862851023347L406.37166659037274,270.01443455533007L422.62653325398765,267.38145357053645L438.88139991760255,277.48608895279574L455.13626658121746,260.01336669714993L471.39113324483236,247.72164903499615L487.64599990844727,263.23080570212795L503.9008665720622,277.87338661904016L520.1557332356771,284.2523788287007L536.410599899292,283.56969390568537L552.6654665629069,230.92612545823553L568.9203332265218,241.3571762482394L585.1751998901367,248.81442823821934L601.4300665537517,261.4275595020381L617.6849332173665,274.4467560486042L633.9397998809815,279.9818871910032L650.1946665445963,290.1529100289769L666.4495332082113,292.4838782834188L682.7043998718261,295.6007547050568L698.9592665354411,298.9872407056613L715.2141331990559,283.886771971228L731.4689998626709,242.9136236687282L747.7238665262859,246.11808337367322L763.9787331899007,247.27718239957915L780.2335998535157,257.79829222376196L796.4884665171305,270.6761049786287L812.7433331807455,279.3816841634598L828.9981998443603,285.3367992066852L845.2530665079753,170.4748505785788L861.5079331715901,74.93534147377169L877.7627998352051,116.69551666152309" fill="none"></path></g><g><path style="fill: none;" stroke="rgb(255, 112, 67)" stroke-width="2px" d="M81.27433331807454,-129.11790540536168L97.52919998168946,56.23286364026736L113.78406664530436,119.28618975764874L130.03893330891927,168.36267044038271L146.29379997253417,206.0951286260305L162.54866663614908,240.5517020879896L178.80353329976398,259.38470511628327L195.05839996337892,272.1845891868771L211.31326662699382,274.3885969600261L227.56813329060873,289.6099844338533L243.82299995422363,299.8936351280038L260.07786661783854,307.04276633931676L276.33273328145344,311.8158330545759L292.58759994506835,313.70331939847256L308.84246660868325,316.0990107395701L325.09733327229816,315.02129824154974L341.35219993591306,306.9144948642986L357.60706659952797,294.3439726192644L373.86193326314293,291.4345043562508L390.11679992675784,300.0399993106204L406.37166659037274,306.4248635914341L422.62653325398765,311.51492188048564L438.88139991760255,308.4073321457468L455.13626658121746,299.2824541381638L471.39113324483236,290.6582580378146L487.64599990844727,295.412840336934L503.9008665720622,304.3978249911407L520.1557332356771,310.9903263317497L536.410599899292,315.32312701510284L552.6654665629069,307.97701247500885L568.9203332265218,275.5975497757629L585.1751998901367,241.5641583199198L601.4300665537517,257.23335958451844L617.6849332173665,272.6836286852993L633.9397998809815,284.06383147774585L650.1946665445963,298.1705266041366L666.4495332082113,306.5108739657609L682.7043998718261,311.92360898531706L698.9592665354411,313.5528082473137L715.2141331990559,304.76330881489025L731.4689998626709,274.3319556614982L747.7238665262859,235.73704421997797L763.9787331899007,247.6290424355193L780.2335998535157,264.1634816311409L796.4884665171305,285.56384196909954L812.7433331807455,300.11770196116845L828.9981998443603,308.7927127885561L845.2530665079753,313.05595546598414L861.5079331715901,296.0406805829963L877.7627998352051,234.3570320539524" fill="none"></path></g></g></g></g><g opacity="0.2"><g><g><g><path style="fill: none;" stroke="rgb(0, 119, 187)" stroke-width="2px" d="M81.27433331807454,-133.7387191628281L97.52919998168946,43.07878660611748L113.78406664530436,132.24680323583016L130.03893330891927,223.31933860962164L146.29379997253417,250.73684935733036L162.54866663614908,278.9548233702902L178.80353329976398,247.5047184338502L195.05839996337892,288.5615462942769L211.31326662699382,251.4010055991821L227.56813329060873,282.046399100891L243.82299995422363,289.6624993220601L260.07786661783854,307.4265444082615L276.33273328145344,309.788786678595L292.58759994506835,306.31233194240446L308.84246660868325,298.6948465605201L325.09733327229816,265.20296323677906L341.35219993591306,259.9673955865408L357.60706659952797,278.0420848476555L373.86193326314293,289.4768826369149L390.11679992675784,268.15713514386005L406.37166659037274,260.5884882631064L422.62653325398765,263.43206873270685L438.88139991760255,292.642842527786L455.13626658121746,233.80449029473385L471.39113324483236,229.2841599060339L487.64599990844727,286.4944745633569L503.9008665720622,299.8372205280572L520.1557332356771,293.820857349936L536.410599899292,282.54566715001164L552.6654665629069,151.96080188236084L568.9203332265218,257.00374897419533L585.1751998901367,260.0003047394457L601.4300665537517,280.34725489201156L617.6849332173665,293.9755499359151L633.9397998809815,288.28458366671947L650.1946665445963,305.40944402366694L666.4495332082113,295.98033062901777L682.7043998718261,300.27606930857985L698.9592665354411,304.06696968770615L715.2141331990559,261.2360689200417L731.4689998626709,181.45390129713488L747.7238665262859,250.9247729272356L763.9787331899007,249.01583093760127L780.2335998535157,273.5799569554795L796.4884665171305,289.9928241075824L812.7433331807455,292.44005293934896L828.9981998443603,294.2694717709663L845.2530665079753,-1.8180723571335182L861.5079331715901,-68.37392218022144L877.7627998352051,179.33577944230638" fill="none"></path></g><g><path style="fill: none;" stroke="rgb(255, 112, 67)" stroke-width="2px" d="M81.27433331807454,-129.11790540536168L97.52919998168946,167.44332506764476L113.78406664530436,179.81738283033485L130.03893330891927,226.0766117232779L146.29379997253417,255.3586260332122L162.54866663614908,288.2175475523254L178.80353329976398,286.31620077479164L195.05839996337892,290.84694304068984L211.31326662699382,277.6390803189512L227.56813329060873,312.2119708711048L243.82299995422363,315.22583921431027L260.07786661783854,317.72755789994L276.33273328145344,318.9598482364931L292.58759994506835,316.5308511320781L308.84246660868325,319.6897317059756L325.09733327229816,313.40548958087066L341.35219993591306,294.7577203259207L357.60706659952797,275.49138090594937L373.86193326314293,287.0707451899365L390.11679992675784,312.94745516584953L406.37166659037274,316.0018098515232L422.62653325398765,319.14984182352674L438.88139991760255,303.7460088975769L455.13626658121746,285.59524521966847L471.39113324483236,277.7220251843857L487.64599990844727,302.5446935094913L503.9008665720622,317.87527898233765L520.1557332356771,320.8790682216208L536.410599899292,321.8223240490108L552.6654665629069,296.95784472495365L568.9203332265218,227.02836646427602L585.1751998901367,190.51407790766098L601.4300665537517,280.73715961082854L617.6849332173665,295.8590312297994L633.9397998809815,301.13413517733136L650.1946665445963,319.33056892996666L666.4495332082113,319.0213948791583L682.7043998718261,320.04271146440504L698.9592665354411,315.99660713123427L715.2141331990559,291.57905969562853L731.4689998626709,228.6849259924289L747.7238665262859,177.84467710413008L763.9787331899007,265.4670397502472L780.2335998535157,288.9651404174121L796.4884665171305,317.66438247047637L812.7433331807455,321.9484919470025L828.9981998443603,321.80522902882615L845.2530665079753,319.45081948188687L861.5079331715901,270.51776825908746L877.7627998352051,141.83155926163306" fill="none"></path></g></g></g></g></g></g><g transform="translate(30, 377)" clip-path="url(#clip_1)"><clipPath id="clip_1"><rect width="975" height="22"></rect></clipPath><g><g><line x1="0" y1="0" x2="0" y2="5" style="visibility: inherit;" fill="rgb(0, 0, 0)" stroke="rgb(204, 204, 204)" stroke-width="1px"></line><line x1="81.27433331807454" y1="0" x2="81.27433331807454" y2="5" style="visibility: inherit;" fill="rgb(0, 0, 0)" stroke="rgb(204, 204, 204)" stroke-width="1px"></line><line x1="162.54866663614908" y1="0" x2="162.54866663614908" y2="5" style="visibility: inherit;" fill="rgb(0, 0, 0)" stroke="rgb(204, 204, 204)" stroke-width="1px"></line><line x1="243.82299995422363" y1="0" x2="243.82299995422363" y2="5" style="visibility: inherit;" fill="rgb(0, 0, 0)" stroke="rgb(204, 204, 204)" stroke-width="1px"></line><line x1="325.09733327229816" y1="0" x2="325.09733327229816" y2="5" style="visibility: inherit;" fill="rgb(0, 0, 0)" stroke="rgb(204, 204, 204)" stroke-width="1px"></line><line x1="406.37166659037274" y1="0" x2="406.37166659037274" y2="5" style="visibility: inherit;" fill="rgb(0, 0, 0)" stroke="rgb(204, 204, 204)" stroke-width="1px"></line><line x1="487.64599990844727" y1="0" x2="487.64599990844727" y2="5" style="visibility: inherit;" fill="rgb(0, 0, 0)" stroke="rgb(204, 204, 204)" stroke-width="1px"></line><line x1="568.9203332265218" y1="0" x2="568.9203332265218" y2="5" style="visibility: inherit;" fill="rgb(0, 0, 0)" stroke="rgb(204, 204, 204)" stroke-width="1px"></line><line x1="650.1946665445963" y1="0" x2="650.1946665445963" y2="5" style="visibility: inherit;" fill="rgb(0, 0, 0)" stroke="rgb(204, 204, 204)" stroke-width="1px"></line><line x1="731.4689998626709" y1="0" x2="731.4689998626709" y2="5" style="visibility: inherit;" fill="rgb(0, 0, 0)" stroke="rgb(204, 204, 204)" stroke-width="1px"></line><line x1="812.7433331807455" y1="0" x2="812.7433331807455" y2="5" style="visibility: inherit;" fill="rgb(0, 0, 0)" stroke="rgb(204, 204, 204)" stroke-width="1px"></line><line x1="894.01766649882" y1="0" x2="894.01766649882" y2="5" style="visibility: inherit;" fill="rgb(0, 0, 0)" stroke="rgb(204, 204, 204)" stroke-width="1px"></line><line x1="975.2919998168945" y1="0" x2="975.2919998168945" y2="5" style="visibility: inherit;" fill="rgb(0, 0, 0)" stroke="rgb(204, 204, 204)" stroke-width="1px"></line></g><g transform="translate(0, 8)"><text style="text-anchor: middle; visibility: hidden; font-family: Roboto, sans-serif; font-size: 12px; font-weight: 200;" x="0" y="0" dx="0em" dy="0.95em" fill="rgb(50, 49, 63)" stroke="none" stroke-width="1px">-5</text><text style="text-anchor: middle; visibility: inherit; font-family: Roboto, sans-serif; font-size: 12px; font-weight: 200;" x="81.27433331807454" y="0" dx="0em" dy="0.95em" fill="rgb(50, 49, 63)" stroke="none" stroke-width="1px">0</text><text style="text-anchor: middle; visibility: inherit; font-family: Roboto, sans-serif; font-size: 12px; font-weight: 200;" x="162.54866663614908" y="0" dx="0em" dy="0.95em" fill="rgb(50, 49, 63)" stroke="none" stroke-width="1px">5</text><text style="text-anchor: middle; visibility: inherit; font-family: Roboto, sans-serif; font-size: 12px; font-weight: 200;" x="243.82299995422363" y="0" dx="0em" dy="0.95em" fill="rgb(50, 49, 63)" stroke="none" stroke-width="1px">10</text><text style="text-anchor: middle; visibility: inherit; font-family: Roboto, sans-serif; font-size: 12px; font-weight: 200;" x="325.09733327229816" y="0" dx="0em" dy="0.95em" fill="rgb(50, 49, 63)" stroke="none" stroke-width="1px">15</text><text style="text-anchor: middle; visibility: inherit; font-family: Roboto, sans-serif; font-size: 12px; font-weight: 200;" x="406.37166659037274" y="0" dx="0em" dy="0.95em" fill="rgb(50, 49, 63)" stroke="none" stroke-width="1px">20</text><text style="text-anchor: middle; visibility: inherit; font-family: Roboto, sans-serif; font-size: 12px; font-weight: 200;" x="487.64599990844727" y="0" dx="0em" dy="0.95em" fill="rgb(50, 49, 63)" stroke="none" stroke-width="1px">25</text><text style="text-anchor: middle; visibility: inherit; font-family: Roboto, sans-serif; font-size: 12px; font-weight: 200;" x="568.9203332265218" y="0" dx="0em" dy="0.95em" fill="rgb(50, 49, 63)" stroke="none" stroke-width="1px">30</text><text style="text-anchor: middle; visibility: inherit; font-family: Roboto, sans-serif; font-size: 12px; font-weight: 200;" x="650.1946665445963" y="0" dx="0em" dy="0.95em" fill="rgb(50, 49, 63)" stroke="none" stroke-width="1px">35</text><text style="text-anchor: middle; visibility: inherit; font-family: Roboto, sans-serif; font-size: 12px; font-weight: 200;" x="731.4689998626709" y="0" dx="0em" dy="0.95em" fill="rgb(50, 49, 63)" stroke="none" stroke-width="1px">40</text><text style="text-anchor: middle; visibility: inherit; font-family: Roboto, sans-serif; font-size: 12px; font-weight: 200;" x="812.7433331807455" y="0" dx="0em" dy="0.95em" fill="rgb(50, 49, 63)" stroke="none" stroke-width="1px">45</text><text style="text-anchor: middle; visibility: inherit; font-family: Roboto, sans-serif; font-size: 12px; font-weight: 200;" x="894.01766649882" y="0" dx="0em" dy="0.95em" fill="rgb(50, 49, 63)" stroke="none" stroke-width="1px">50</text><text style="text-anchor: middle; visibility: hidden; font-family: Roboto, sans-serif; font-size: 12px; font-weight: 200;" x="975.2919998168945" y="0" dx="0em" dy="0.95em" fill="rgb(50, 49, 63)" stroke="none" stroke-width="1px">55</text></g><line x1="0" y1="0" x2="975.2919998168945" y2="0" fill="rgb(0, 0, 0)" stroke="rgb(204, 204, 204)" stroke-width="1px"></line></g></g></g></g></svg>