<svg viewBox="0 0 1006 400" xmlns="http://www.w3.org/2000/svg"><g><g><g><g><g><line x1="51.41600036621094" y1="377.95999908447266" x2="46.41600036621094" y2="377.95999908447266" style="visibility: inherit;" fill="rgb(0, 0, 0)" stroke="rgb(204, 204, 204)" stroke-width="1px"></line><line x1="51.41600036621094" y1="343.5999991677024" x2="46.41600036621094" y2="343.5999991677024" style="visibility: inherit;" fill="rgb(0, 0, 0)" stroke="rgb(204, 204, 204)" stroke-width="1px"></line><line x1="51.41600036621094" y1="309.23999925093216" x2="46.41600036621094" y2="309.23999925093216" style="visibility: inherit;" fill="rgb(0, 0, 0)" stroke="rgb(204, 204, 204)" stroke-width="1px"></line><line x1="51.41600036621094" y1="274.87999933416194" x2="46.41600036621094" y2="274.87999933416194" style="visibility: inherit;" fill="rgb(0, 0, 0)" stroke="rgb(204, 204, 204)" stroke-width="1px"></line><line x1="51.41600036621094" y1="240.5199994173917" x2="46.41600036621094" y2="240.5199994173917" style="visibility: inherit;" fill="rgb(0, 0, 0)" stroke="rgb(204, 204, 204)" stroke-width="1px"></line><line x1="51.41600036621094" y1="206.15999950062144" x2="46.41600036621094" y2="206.15999950062144" style="visibility: inherit;" fill="rgb(0, 0, 0)" stroke="rgb(204, 204, 204)" stroke-width="1px"></line><line x1="51.41600036621094" y1="171.79999958385122" x2="46.41600036621094" y2="171.79999958385122" style="visibility: inherit;" fill="rgb(0, 0, 0)" stroke="rgb(204, 204, 204)" stroke-width="1px"></line><line x1="51.41600036621094" y1="137.43999966708103" x2="46.41600036621094" y2="137.43999966708103" style="visibility: inherit;" fill="rgb(0, 0, 0)" stroke="rgb(204, 204, 204)" stroke-width="1px"></line><line x1="51.41600036621094" y1="103.07999975031076" x2="46.41600036621094" y2="103.07999975031076" style="visibility: inherit;" fill="rgb(0, 0, 0)" stroke="rgb(204, 204, 204)" stroke-width="1px"></line><line x1="51.41600036621094" y1="68.71999983354051" x2="46.41600036621094" y2="68.71999983354051" style="visibility: inherit;" fill="rgb(0, 0, 0)" stroke="rgb(204, 204, 204)" stroke-width="1px"></line><line x1="51.41600036621094" y1="34.359999916770256" x2="46.41600036621094" y2="34.359999916770256" style="visibility: inherit;" fill="rgb(0, 0, 0)" stroke="rgb(204, 204, 204)" stroke-width="1px"></line><line x1="51.41600036621094" y1="0" x2="46.41600036621094" y2="0" style="visibility: inherit;" fill="rgb(0, 0, 0)" stroke="rgb(204, 204, 204)" stroke-width="1px"></line></g><g transform="translate(41.41600036621094, 0)"><text style="text-anchor: end; visibility: hidden; font-family: Roboto, sans-serif; font-size: 12px; font-weight: 200;" x="0" y="377.95999908447266" dx="0em" dy="0.3em" fill="rgb(50, 49, 63)" stroke="none" stroke-width="1px">-0.1</text><text style="text-anchor: end; visibility: inherit; font-family: Roboto, sans-serif; font-size: 12px; font-weight: 200;" x="0" y="343.5999991677024" dx="0em" dy="0.3em" fill="rgb(50, 49, 63)" stroke="none" stroke-width="1px">0</text><text style="text-anchor: end; visibility: inherit; font-family: Roboto, sans-serif; font-size: 12px; font-weight: 200;" x="0" y="309.23999925093216" dx="0em" dy="0.3em" fill="rgb(50, 49, 63)" stroke="none" stroke-width="1px">0.1</text><text style="text-anchor: end; visibility: inherit; font-family: Roboto, sans-serif; font-size: 12px; font-weight: 200;" x="0" y="274.87999933416194" dx="0em" dy="0.3em" fill="rgb(50, 49, 63)" stroke="none" stroke-width="1px">0.2</text><text style="text-anchor: end; visibility: inherit; font-family: Roboto, sans-serif; font-size: 12px; font-weight: 200;" x="0" y="240.5199994173917" dx="0em" dy="0.3em" fill="rgb(50, 49, 63)" stroke="none" stroke-width="1px">0.3</text><text style="text-anchor: end; visibility: inherit; font-family: Roboto, sans-serif; font-size: 12px; font-weight: 200;" x="0" y="206.15999950062144" dx="0em" dy="0.3em" fill="rgb(50, 49, 63)" stroke="none" stroke-width="1px">0.4</text><text style="text-anchor: end; visibility: inherit; font-family: Roboto, sans-serif; font-size: 12px; font-weight: 200;" x="0" y="171.79999958385122" dx="0em" dy="0.3em" fill="rgb(50, 49, 63)" stroke="none" stroke-width="1px">0.5</text><text style="text-anchor: end; visibility: inherit; font-family: Roboto, sans-serif; font-size: 12px; font-weight: 200;" x="0" y="137.43999966708103" dx="0em" dy="0.3em" fill="rgb(50, 49, 63)" stroke="none" stroke-width="1px">0.6</text><text style="text-anchor: end; visibility: inherit; font-family: Roboto, sans-serif; font-size: 12px; font-weight: 200;" x="0" y="103.07999975031076" dx="0em" dy="0.3em" fill="rgb(50, 49, 63)" stroke="none" stroke-width="1px">0.7</text><text style="text-anchor: end; visibility: inherit; font-family: Roboto, sans-serif; font-size: 12px; font-weight: 200;" x="0" y="68.71999983354051" dx="0em" dy="0.3em" fill="rgb(50, 49, 63)" stroke="none" stroke-width="1px">0.8</text><text style="text-anchor: end; visibility: inherit; font-family: Roboto, sans-serif; font-size: 12px; font-weight: 200;" x="0" y="34.359999916770256" dx="0em" dy="0.3em" fill="rgb(50, 49, 63)" stroke="none" stroke-width="1px">0.9</text><text style="text-anchor: end; visibility: hidden; font-family: Roboto, sans-serif; font-size: 12px; font-weight: 200;" x="0" y="0" dx="0em" dy="0.3em" fill="rgb(50, 49, 63)" stroke="none" stroke-width="1px">1</text></g><line x1="51.41600036621094" y1="0" x2="51.41600036621094" y2="377.95999908447266" fill="rgb(0, 0, 0)" stroke="rgb(204, 204, 204)" stroke-width="1px"></line></g></g><g transform="translate(51, 0)" clip-path="url(#clip_0)"><clipPath id="clip_0"><rect width="954" height="377"></rect></clipPath><g><g><g><line x1="0" y1="0" x2="0" y2="377.95999908447266" fill="rgb(0, 0, 0)" stroke="rgb(60, 60, 60)" stroke-width="1px" opacity="0.25"></line><line x1="79.54866663614908" y1="0" x2="79.54866663614908" y2="377.95999908447266" fill="rgb(0, 0, 0)" stroke="rgb(60, 60, 60)" stroke-width="1px" opacity="0.25"></line><line x1="159.09733327229816" y1="0" x2="159.09733327229816" y2="377.95999908447266" fill="rgb(0, 0, 0)" stroke="rgb(60, 60, 60)" stroke-width="1px" opacity="0.25"></line><line x1="238.64599990844727" y1="0" x2="238.64599990844727" y2="377.95999908447266" fill="rgb(0, 0, 0)" stroke="rgb(60, 60, 60)" stroke-width="1px" opacity="0.25"></line><line x1="318.1946665445963" y1="0" x2="318.1946665445963" y2="377.95999908447266" fill="rgb(0, 0, 0)" stroke="rgb(60, 60, 60)" stroke-width="1px" opacity="0.25"></line><line x1="397.7433331807455" y1="0" x2="397.7433331807455" y2="377.95999908447266" fill="rgb(0, 0, 0)" stroke="rgb(60, 60, 60)" stroke-width="1px" opacity="0.25"></line><line x1="477.29199981689453" y1="0" x2="477.29199981689453" y2="377.95999908447266" fill="rgb(0, 0, 0)" stroke="rgb(60, 60, 60)" stroke-width="1px" opacity="0.25"></line><line x1="556.8406664530437" y1="0" x2="556.8406664530437" y2="377.95999908447266" fill="rgb(0, 0, 0)" stroke="rgb(60, 60, 60)" stroke-width="1px" opacity="0.25"></line><line x1="636.3893330891926" y1="0" x2="636.3893330891926" y2="377.95999908447266" fill="rgb(0, 0, 0)" stroke="rgb(60, 60, 60)" stroke-width="1px" opacity="0.25"></line><line x1="715.9379997253418" y1="0" x2="715.9379997253418" y2="377.95999908447266" fill="rgb(0, 0, 0)" stroke="rgb(60, 60, 60)" stroke-width="1px" opacity="0.25"></line><line x1="795.486666361491" y1="0" x2="795.486666361491" y2="377.95999908447266" fill="rgb(0, 0, 0)" stroke="rgb(60, 60, 60)" stroke-width="1px" opacity="0.25"></line><line x1="875.0353329976399" y1="0" x2="875.0353329976399" y2="377.95999908447266" fill="rgb(0, 0, 0)" stroke="rgb(60, 60, 60)" stroke-width="1px" opacity="0.25"></line><line x1="954.5839996337891" y1="0" x2="954.5839996337891" y2="377.95999908447266" fill="rgb(0, 0, 0)" stroke="rgb(60, 60, 60)" stroke-width="1px" opacity="0.25"></line></g><g><line x1="0" y1="377.95999908447266" x2="954.5839996337891" y2="377.95999908447266" fill="rgb(0, 0, 0)" stroke="rgb(60, 60, 60)" stroke-width="1px" opacity="0.25"></line><line x1="0" y1="343.5999991677024" x2="954.5839996337891" y2="343.5999991677024" fill="rgb(0, 0, 0)" stroke="rgb(60, 60, 60)" stroke-width="1px" opacity="0.25"></line><line x1="0" y1="309.23999925093216" x2="954.5839996337891" y2="309.23999925093216" fill="rgb(0, 0, 0)" stroke="rgb(60, 60, 60)" stroke-width="1px" opacity="0.25"></line><line x1="0" y1="274.87999933416194" x2="954.5839996337891" y2="274.87999933416194" fill="rgb(0, 0, 0)" stroke="rgb(60, 60, 60)" stroke-width="1px" opacity="0.25"></line><line x1="0" y1="240.5199994173917" x2="954.5839996337891" y2="240.5199994173917" fill="rgb(0, 0, 0)" stroke="rgb(60, 60, 60)" stroke-width="1px" opacity="0.25"></line><line x1="0" y1="206.15999950062144" x2="954.5839996337891" y2="206.15999950062144" fill="rgb(0, 0, 0)" stroke="rgb(60, 60, 60)" stroke-width="1px" opacity="0.25"></line><line x1="0" y1="171.79999958385122" x2="954.5839996337891" y2="171.79999958385122" fill="rgb(0, 0, 0)" stroke="rgb(60, 60, 60)" stroke-width="1px" opacity="0.25"></line><line x1="0" y1="137.43999966708103" x2="954.5839996337891" y2="137.43999966708103" fill="rgb(0, 0, 0)" stroke="rgb(60, 60, 60)" stroke-width="1px" opacity="0.25"></line><line x1="0" y1="103.07999975031076" x2="954.5839996337891" y2="103.07999975031076" fill="rgb(0, 0, 0)" stroke="rgb(60, 60, 60)" stroke-width="1px" opacity="0.25"></line><line x1="0" y1="68.71999983354051" x2="954.5839996337891" y2="68.71999983354051" fill="rgb(0, 0, 0)" stroke="rgb(60, 60, 60)" stroke-width="1px" opacity="0.25"></line><line x1="0" y1="34.359999916770256" x2="954.5839996337891" y2="34.359999916770256" fill="rgb(0, 0, 0)" stroke="rgb(60, 60, 60)" stroke-width="1px" opacity="0.25"></line><line x1="0" y1="0" x2="954.5839996337891" y2="0" fill="rgb(0, 0, 0)" stroke="rgb(60, 60, 60)" stroke-width="1px" opacity="0.25"></line></g></g></g><g><g><line x1="0" y1="343.5999991677024" x2="954.5839996337891" y2="343.5999991677024" fill="rgb(0, 0, 0)" stroke="rgb(153, 153, 153)" stroke-width="1.5px"></line></g></g><g><g><line x1="79.54866663614908" y1="0" x2="79.54866663614908" y2="377.95999908447266" fill="rgb(0, 0, 0)" stroke="rgb(153, 153, 153)" stroke-width="1.5px"></line></g></g><g><g><g><g><g><path style="fill: none;" stroke="rgb(0, 119, 187)" stroke-width="2px" d="M79.54866663614908,301.93365960297893L95.45839996337891,306.51064324303843L111.36813329060872,306.23686140390544L127.27786661783854,279.6955165377068L143.18759994506834,246.84468217252402L159.09733327229816,226.27087787901831L175.00706659952797,221.4172299682331L190.91679992675782,208.97065225843198L206.82653325398763,205.54930436917172L222.73626658121745,181.73732600654617L238.64599990844727,187.54770914993065L254.55573323567708,150.96721475709546L270.4654665629069,122.15861580540799L286.3751998901367,136.57195971750048L302.28493321736653,135.7807673029916L318.1946665445963,155.37913451952264L334.10439987182616,166.59580632975707L350.01413319905595,173.4929622604067L365.92386652628585,158.16849265808938L381.83359985351564,171.93803311341625L397.7433331807455,159.42472851278077L413.65306650797527,141.31080542477125L429.5627998352051,126.46953722972832L445.4725331624349,137.2280896289257L461.38226648966474,140.51822530459822L477.29199981689453,156.36427125995198L493.2017331441244,125.165088794319L509.11146647135416,108.6341351305887L525.021199798584,108.5134762292237L540.9309331258138,130.96616078173085L556.8406664530437,152.21548540421156L572.7503997802734,166.109849546915L588.6601331075033,164.74957589691468L604.5698664347331,144.7079679573283L620.479599761963,120.15785610017316L636.3893330891926,93.20565807889555L652.2990664164225,101.0408834187415L668.2087997436523,83.08226611714325L684.1185330708822,76.01076813951592L700.0282663981119,86.27954259746792L715.9379997253418,128.36644959072876L731.8477330525717,124.59525551308316L747.7574663798014,128.86447179870092L763.6671997070313,124.08599561578944L779.5769330342611,95.86557464201631L795.486666361491,91.69416313211538L811.3963996887206,88.21488792971972L827.3061330159505,125.35260904063989L843.2158663431803,135.21109849374977L859.1255996704102,131.2609420310375" fill="none"></path></g><g><path style="fill: none;" stroke="rgb(255, 112, 67)" stroke-width="2px" d="M79.54866663614908,329.6649350138112L95.45839996337891,313.52907778745424L111.36813329060872,304.7023425165969L127.27786661783854,286.58518751373737L143.18759994506834,266.2151129806085L159.09733327229816,236.07498351843952L175.00706659952797,213.47466032804303L190.91679992675782,192.28013093553037L206.82653325398763,192.92139796721068L222.73626658121745,154.52305116345548L238.64599990844727,125.48417503260845L254.55573323567708,96.21228613476954L270.4654665629069,79.70188860629608L286.3751998901367,75.11921182409314L302.28493321736653,65.26286604067916L318.1946665445963,74.42035666915224L334.10439987182616,87.65182824020332L350.01413319905595,107.07008713343022L365.92386652628585,137.14835355028882L381.83359985351564,118.78004617109474L397.7433331807455,97.81129974753811L413.65306650797527,78.81934232437591L429.5627998352051,74.60903627746171L445.4725331624349,95.70548580517476L461.38226648966474,121.3588639582593L477.29199981689453,118.67075148172032L493.2017331441244,95.23548024317516L509.11146647135416,77.574107651131L525.021199798584,63.20337855160159L540.9309331258138,74.30320789485044L556.8406664530437,121.67086393393123L572.7503997802734,158.82357010816628L588.6601331075033,147.18153398048202L604.5698664347331,124.86379435704485L620.479599761963,106.65706202529371L636.3893330891926,86.19559435315144L652.2990664164225,66.14982065194108L668.2087997436523,51.61167780596913L684.1185330708822,48.54176573603861L700.0282663981119,58.25842528217488L715.9379997253418,82.62639457571024L731.8477330525717,113.24289880267142L747.7574663798014,120.29105165684257L763.6671997070313,108.4768542050583L779.5769330342611,79.66069258193438L795.486666361491,60.66562122053841L811.3963996887206,49.884408500188876L827.3061330159505,48.184395055859355L843.2158663431803,68.74992243495589L859.1255996704102,94.19530163386425" fill="none"></path></g></g></g></g><g opacity="0.2"><g><g><g><path style="fill: none;" stroke="rgb(0, 119, 187)" stroke-width="2px" d="M79.54866663614908,301.93365960297893L95.45839996337891,309.2568334270742L111.36813329060872,305.9740308383378L127.27786661783854,248.48289497505718L143.18759994506834,203.95463282534138L159.09733327229816,197.80989997155427L175.00706659952797,214.47643579744368L190.91679992675782,190.8234224703959L206.82653325398763,200.50348079512685L222.73626658121745,146.37931328125356L238.64599990844727,196.21058411754106L254.55573323567708,96.29554260293393L270.4654665629069,79.03978245186123L286.3751998901367,158.16373834445173L302.28493321736653,134.59490869821119L318.1946665445963,184.76286305733808L334.10439987182616,183.41606752551283L350.01413319905595,183.83694496923744L365.92386652628585,135.18412278331655L381.83359985351564,192.59108520586778L397.7433331807455,140.65545787119103L413.65306650797527,114.14051683911198L429.5627998352051,104.20792795211504L445.4725331624349,153.36579078241192L461.38226648966474,145.45340543323087L477.29199981689453,180.1332726168349L493.2017331441244,78.36639492602652L509.11146647135416,83.83773001390104L525.021199798584,108.33248798832015L540.9309331258138,164.64517520123414L556.8406664530437,184.08946529142546L572.7503997802734,186.9513929964567L588.6601331075033,162.70916558430352L604.5698664347331,114.64555748348799L620.479599761963,83.33268936952503L636.3893330891926,52.77736174197015L652.2990664164225,112.79372130728669L668.2087997436523,56.14434033145538L684.1185330708822,65.40352121246174L700.0282663981119,101.68270425007908L715.9379997253418,191.49680999623052L731.8477330525717,118.93846440115175L747.7574663798014,135.26829622404588L763.6671997070313,116.91828134349184L779.5769330342611,53.53494318869009L795.486666361491,85.4370458679143L811.3963996887206,82.99597512645175L827.3061330159505,181.05919070493553L843.2158663431803,149.99883267308263L859.1255996704102,125.33570733704896" fill="none"></path></g><g><path style="fill: none;" stroke="rgb(255, 112, 67)" stroke-width="2px" d="M79.54866663614908,329.6649350138112L95.45839996337891,303.8475634516401L111.36813329060872,296.22867665657384L127.27786661783854,265.27941323037453L143.18759994506834,239.61994367015555L159.09733327229816,194.3803340256533L175.00706659952797,181.15583656060505L190.91679992675782,161.37830361376476L206.82653325398763,193.867142279231L222.73626658121745,97.50598125680885L238.64599990844727,82.18924130558332L254.55573323567708,52.46374911474673L270.4654665629069,54.99020162613639L286.3751998901367,68.25417459167268L302.28493321736653,50.48993313003354L318.1946665445963,88.15013403997706L334.10439987182616,107.49343648144908L350.01413319905595,136.19254517944105L365.92386652628585,182.26117105442572L381.83359985351564,91.22926403835503L397.7433331807455,66.35933008809145L413.65306650797527,50.332031128081454L429.5627998352051,68.29366033223864L445.4725331624349,127.3499101891875L461.38226648966474,159.83874885465372L477.29199981689453,114.63859423048359L493.2017331441244,60.08263334979351L509.11146647135416,51.08207587743193L525.021199798584,41.64729813977998L540.9309331258138,90.95294577501677L556.8406664530437,192.7223322849223L572.7503997802734,214.5526219773739L588.6601331075033,129.71848117878093L604.5698664347331,91.38718652046303L620.479599761963,79.34696431013357L636.3893330891926,55.5033933725587L652.2990664164225,36.08116041026655L668.2087997436523,29.80446367196856L684.1185330708822,43.93689764824146L700.0282663981119,72.83341456890746L715.9379997253418,119.17834846715245L731.8477330525717,159.16765510627934L747.7574663798014,130.86328093301168L763.6671997070313,90.75555803249868L779.5769330342611,36.436450154736725L795.486666361491,32.17301418140613L811.3963996887206,33.712589420673055L827.3061330159505,45.63437488946052L843.2158663431803,99.59821350290817L859.1255996704102,132.36337043171264" fill="none"></path></g></g></g></g></g></g><g transform="translate(51, 377)" clip-path="url(#clip_1)"><clipPath id="clip_1"><rect width="954" height="22"></rect></clipPath><g><g><line x1="0" y1="0" x2="0" y2="5" style="visibility: inherit;" fill="rgb(0, 0, 0)" stroke="rgb(204, 204, 204)" stroke-width="1px"></line><line x1="79.54866663614908" y1="0" x2="79.54866663614908" y2="5" style="visibility: inherit;" fill="rgb(0, 0, 0)" stroke="rgb(204, 204, 204)" stroke-width="1px"></line><line x1="159.09733327229816" y1="0" x2="159.09733327229816" y2="5" style="visibility: inherit;" fill="rgb(0, 0, 0)" stroke="rgb(204, 204, 204)" stroke-width="1px"></line><line x1="238.64599990844727" y1="0" x2="238.64599990844727" y2="5" style="visibility: inherit;" fill="rgb(0, 0, 0)" stroke="rgb(204, 204, 204)" stroke-width="1px"></line><line x1="318.1946665445963" y1="0" x2="318.1946665445963" y2="5" style="visibility: inherit;" fill="rgb(0, 0, 0)" stroke="rgb(204, 204, 204)" stroke-width="1px"></line><line x1="397.7433331807455" y1="0" x2="397.7433331807455" y2="5" style="visibility: inherit;" fill="rgb(0, 0, 0)" stroke="rgb(204, 204, 204)" stroke-width="1px"></line><line x1="477.29199981689453" y1="0" x2="477.29199981689453" y2="5" style="visibility: inherit;" fill="rgb(0, 0, 0)" stroke="rgb(204, 204, 204)" stroke-width="1px"></line><line x1="556.8406664530437" y1="0" x2="556.8406664530437" y2="5" style="visibility: inherit;" fill="rgb(0, 0, 0)" stroke="rgb(204, 204, 204)" stroke-width="1px"></line><line x1="636.3893330891926" y1="0" x2="636.3893330891926" y2="5" style="visibility: inherit;" fill="rgb(0, 0, 0)" stroke="rgb(204, 204, 204)" stroke-width="1px"></line><line x1="715.9379997253418" y1="0" x2="715.9379997253418" y2="5" style="visibility: inherit;" fill="rgb(0, 0, 0)" stroke="rgb(204, 204, 204)" stroke-width="1px"></line><line x1="795.486666361491" y1="0" x2="795.486666361491" y2="5" style="visibility: inherit;" fill="rgb(0, 0, 0)" stroke="rgb(204, 204, 204)" stroke-width="1px"></line><line x1="875.0353329976399" y1="0" x2="875.0353329976399" y2="5" style="visibility: inherit;" fill="rgb(0, 0, 0)" stroke="rgb(204, 204, 204)" stroke-width="1px"></line><line x1="954.5839996337891" y1="0" x2="954.5839996337891" y2="5" style="visibility: inherit;" fill="rgb(0, 0, 0)" stroke="rgb(204, 204, 204)" stroke-width="1px"></line></g><g transform="translate(0, 8)"><text style="text-anchor: middle; visibility: hidden; font-family: Roboto, sans-serif; font-size: 12px; font-weight: 200;" x="0" y="0" dx="0em" dy="0.95em" fill="rgb(50, 49, 63)" stroke="none" stroke-width="1px">-5</text><text style="text-anchor: middle; visibility: inherit; font-family: Roboto, sans-serif; font-size: 12px; font-weight: 200;" x="79.54866663614908" y="0" dx="0em" dy="0.95em" fill="rgb(50, 49, 63)" stroke="none" stroke-width="1px">0</text><text style="text-anchor: middle; visibility: inherit; font-family: Roboto, sans-serif; font-size: 12px; font-weight: 200;" x="159.09733327229816" y="0" dx="0em" dy="0.95em" fill="rgb(50, 49, 63)" stroke="none" stroke-width="1px">5</text><text style="text-anchor: middle; visibility: inherit; font-family: Roboto, sans-serif; font-size: 12px; font-weight: 200;" x="238.64599990844727" y="0" dx="0em" dy="0.95em" fill="rgb(50, 49, 63)" stroke="none" stroke-width="1px">10</text><text style="text-anchor: middle; visibility: inherit; font-family: Roboto, sans-serif; font-size: 12px; font-weight: 200;" x="318.1946665445963" y="0" dx="0em" dy="0.95em" fill="rgb(50, 49, 63)" stroke="none" stroke-width="1px">15</text><text style="text-anchor: middle; visibility: inherit; font-family: Roboto, sans-serif; font-size: 12px; font-weight: 200;" x="397.7433331807455" y="0" dx="0em" dy="0.95em" fill="rgb(50, 49, 63)" stroke="none" stroke-width="1px">20</text><text style="text-anchor: middle; visibility: inherit; font-family: Roboto, sans-serif; font-size: 12px; font-weight: 200;" x="477.29199981689453" y="0" dx="0em" dy="0.95em" fill="rgb(50, 49, 63)" stroke="none" stroke-width="1px">25</text><text style="text-anchor: middle; visibility: inherit; font-family: Roboto, sans-serif; font-size: 12px; font-weight: 200;" x="556.8406664530437" y="0" dx="0em" dy="0.95em" fill="rgb(50, 49, 63)" stroke="none" stroke-width="1px">30</text><text style="text-anchor: middle; visibility: inherit; font-family: Roboto, sans-serif; font-size: 12px; font-weight: 200;" x="636.3893330891926" y="0" dx="0em" dy="0.95em" fill="rgb(50, 49, 63)" stroke="none" stroke-width="1px">35</text><text style="text-anchor: middle; visibility: inherit; font-family: Roboto, sans-serif; font-size: 12px; font-weight: 200;" x="715.9379997253418" y="0" dx="0em" dy="0.95em" fill="rgb(50, 49, 63)" stroke="none" stroke-width="1px">40</text><text style="text-anchor: middle; visibility: inherit; font-family: Roboto, sans-serif; font-size: 12px; font-weight: 200;" x="795.486666361491" y="0" dx="0em" dy="0.95em" fill="rgb(50, 49, 63)" stroke="none" stroke-width="1px">45</text><text style="text-anchor: middle; visibility: inherit; font-family: Roboto, sans-serif; font-size: 12px; font-weight: 200;" x="875.0353329976399" y="0" dx="0em" dy="0.95em" fill="rgb(50, 49, 63)" stroke="none" stroke-width="1px">50</text><text style="text-anchor: middle; visibility: hidden; font-family: Roboto, sans-serif; font-size: 12px; font-weight: 200;" x="954.5839996337891" y="0" dx="0em" dy="0.95em" fill="rgb(50, 49, 63)" stroke="none" stroke-width="1px">55</text></g><line x1="0" y1="0" x2="954.5839996337891" y2="0" fill="rgb(0, 0, 0)" stroke="rgb(204, 204, 204)" stroke-width="1px"></line></g></g></g></g></svg>